<svg width="789" height="670" viewBox="0 0 789 670" fill="none" xmlns="http://www.w3.org/2000/svg">
<g opacity="0.19">
<path d="M353.824 1.39258C355.923 1.63873 358.048 1.5695 360.164 1.45412C374.89 1.63873 389.625 1.48489 404.351 1.53873C404.488 16.931 404.583 32.3157 404.574 47.7003C387.655 47.6849 370.727 47.7003 353.807 47.6926C353.824 32.2618 353.782 16.831 353.824 1.39258Z" fill="#11F4CC"/>
<path d="M295.553 53.0693C312.686 53.0693 329.82 53.0693 346.953 53.077C346.971 68.5463 346.971 84.0155 346.953 99.4924C329.82 99.4924 312.686 99.4924 295.553 99.4924C295.553 84.0155 295.553 68.5463 295.553 53.0693Z" fill="#11F4CC"/>
<path d="M352.941 53.0692C370.178 53.0692 387.406 53.0846 404.642 53.0615C404.325 68.6077 404.753 84.1769 404.436 99.7154C387.294 99.3384 370.084 99.3538 352.941 99.7077C352.95 84.1615 352.941 68.6154 352.941 53.0692Z" fill="#11F4CC"/>
<path d="M468.01 53.1386C477.013 53.0001 486.026 53.1232 495.038 53.0693C500.204 75.8309 504.83 98.6847 509.841 121.469C523.857 123.162 537.598 126.669 550.799 131.192C567.641 113.231 585.058 95.6847 601.926 77.777C616.206 85.2232 630.479 92.677 644.734 100.169C648.238 101.231 646.473 105.154 646.636 107.615C638.806 127.969 631.001 148.339 623.094 168.677C633.888 176.885 644.1 185.785 652.821 195.815C677.442 187.8 702.328 180.423 726.975 172.477C734.317 183.831 741.65 195.2 748.957 206.569C751.63 209.546 750.011 213.592 750.456 217.069C731.712 231.316 713.559 246.208 694.661 260.292C699.51 271.962 703.125 284.054 705.506 296.308C705.96 297.777 708.128 297.392 709.404 297.8C733.708 302.108 758.081 306.162 782.359 310.608C782.35 326.685 782.787 342.754 782.676 358.839C757.001 363.154 731.344 367.631 705.712 372.146C703.373 384.654 699.732 397.016 694.721 408.885C714.056 423.508 732.963 438.585 752.178 453.346C752.084 454.931 752.418 456.608 751.801 458.139C743.646 471.139 735.053 483.939 727.06 497.008C703.193 489.523 679.266 482.185 655.357 474.808C654.457 474.685 653.549 473.885 652.658 474.354C643.552 483.7 633.905 492.762 622.974 500.4C631.387 522.792 640.433 545 648.632 567.462C632.809 574.962 617.671 583.592 602.003 591.339C584.801 573.916 568.113 555.962 550.919 538.508C537.452 541.892 524.002 546.239 509.987 547.854C505.07 570.892 500.032 593.916 495.012 616.939C486.009 616.869 477.005 617.016 468.01 616.869C468.113 585.346 468.044 553.823 468.044 522.308C469.201 505.285 468.318 488.146 468.618 471.077C491.054 470.954 513.302 465.646 533.366 456.723C564.472 442.616 589.984 418.723 603.947 390.008C620.644 356.408 621.175 316.662 605.198 282.762C583.276 233.723 526.983 199.169 468.087 198.908C467.993 150.315 468.138 101.723 468.01 53.1386Z" fill="#11F4CC"/>
<path d="M352.941 104.646C370.066 104.931 387.311 104.931 404.436 104.639C404.573 120.262 404.65 135.9 404.462 151.516C387.32 151.162 370.075 151.185 352.941 151.5C352.959 135.885 352.959 120.262 352.941 104.646Z" fill="#11F4CC"/>
<path d="M410.424 104.839C427.592 104.608 444.811 105.177 461.953 104.585C462.724 120.093 462.099 135.693 462.262 151.231C444.974 151.362 427.695 151.308 410.407 151.285C410.304 135.808 410.278 120.323 410.424 104.839Z" fill="#11F4CC"/>
<path d="M352.949 156.446C370.066 156.716 387.268 156.7 404.393 156.446C404.71 171.985 404.581 187.531 404.453 203.077C387.285 203.092 370.117 203.085 352.949 203.077C352.932 187.531 352.941 171.992 352.949 156.446Z" fill="#11F4CC"/>
<path d="M410.348 156.669C427.653 156.462 444.975 156.715 462.28 156.585C462.288 170.692 462.314 184.8 462.271 198.908C452.308 198.992 442.413 200.162 432.656 201.923C425.442 204.023 417.775 202.754 410.348 203.077C410.331 187.608 410.339 172.139 410.348 156.669Z" fill="#11F4CC"/>
<path d="M295.553 156.924C312.686 156.924 329.828 156.924 346.962 156.924C346.953 172.316 346.953 187.701 346.962 203.085C329.828 203.085 312.686 203.078 295.553 203.093C295.553 187.701 295.553 172.316 295.553 156.924Z" fill="#11F4CC"/>
<path d="M237.565 208.523C254.895 208.377 272.226 208.515 289.556 208.454C289.402 223.838 289.513 239.223 289.565 254.615C272.157 254.623 254.749 254.6 237.342 254.631C237.941 239.285 237.505 223.885 237.565 208.523Z" fill="#11F4CC"/>
<path d="M295.27 208.393C312.498 208.554 329.726 208.416 346.954 208.462C346.954 222.262 346.98 236.062 346.937 249.862C345.446 251.416 344.015 253.008 342.61 254.616C326.83 254.608 311.05 254.616 295.262 254.616C295.262 239.208 295.253 223.8 295.27 208.393Z" fill="#11F4CC"/>
<path d="M352.942 208.462C370.213 208.454 387.483 208.469 404.745 208.454C405.131 210.631 402.492 210.923 400.89 211.677C382.789 219.239 366.443 230.116 352.976 243.331C352.908 231.708 352.959 220.085 352.942 208.462Z" fill="#11F4CC"/>
<path d="M122.503 260C139.671 260 156.839 260 174.007 260C173.844 275.569 174.092 291.138 173.835 306.708C156.762 306.315 139.654 306.308 122.58 306.723C122.4 291.146 122.555 275.569 122.503 260Z" fill="#11F4CC"/>
<path d="M237.564 260.062C254.904 259.939 272.243 260.015 289.582 260C289.453 275.462 289.462 290.946 289.59 306.408C272.303 306.715 254.981 306.162 237.719 306.685C237.436 291.146 237.753 275.6 237.564 260.062Z" fill="#11F4CC"/>
<path d="M295.261 260.001C309.705 259.985 324.14 260.008 338.583 259.985C337.487 261.37 336.476 262.816 335.576 264.316C326.675 277.239 320.43 291.601 316.824 306.431C309.73 306.531 302.62 306.378 295.544 306.708C294.893 291.17 295.441 275.562 295.261 260.001Z" fill="#11F4CC"/>
<path d="M122.486 311.577C139.62 311.969 156.848 312.008 173.973 311.554C173.81 327.192 173.947 342.823 173.904 358.461C156.771 358.338 139.637 358.338 122.503 358.461C122.495 342.831 122.521 327.2 122.486 311.577Z" fill="#11F4CC"/>
<path d="M179.97 311.778C197.172 311.693 214.417 312.17 231.593 311.539C231.859 327.124 231.593 342.685 231.799 358.27C214.511 358.639 197.189 358.193 179.884 358.462C179.944 342.901 179.798 327.339 179.97 311.778Z" fill="#11F4CC"/>
<path d="M295.201 312C302.02 311.584 308.874 311.931 315.71 311.823C312.592 327.231 312.943 343.031 315.564 358.461C308.805 358.2 302.029 358.607 295.261 358.469C295.218 342.984 295.338 327.492 295.201 312Z" fill="#11F4CC"/>
<path d="M237.342 410.016C237.976 394.539 237.419 379.008 237.625 363.508C254.938 363.692 272.251 363.531 289.565 363.585C289.445 379.062 289.462 394.539 289.565 410.016C272.157 410.008 254.749 409.992 237.342 410.016Z" fill="#11F4CC"/>
<path d="M295.296 363.615C302.475 363.539 309.646 363.615 316.825 363.569C318.898 372.485 321.956 381.231 326.154 389.523C327.37 393.054 330.531 395.962 330.797 399.746C334.438 402.277 335.483 406.915 338.601 410.015C324.158 409.992 309.714 410.008 295.262 410.008C295.279 394.546 295.219 379.077 295.296 363.615Z" fill="#11F4CC"/>
<path d="M122.505 415.385C139.638 415.385 156.772 415.385 173.905 415.385C173.957 430.769 173.803 446.154 173.982 461.531C156.823 461.869 139.63 461.392 122.496 461.769C122.522 446.308 122.496 430.846 122.505 415.385Z" fill="#11F4CC"/>
<path d="M179.892 415.385C197.232 415.423 214.562 415.308 231.893 415.446C231.627 430.816 231.627 446.193 231.833 461.546C214.519 461.608 197.197 461.754 179.892 461.523C179.892 446.139 179.884 430.762 179.892 415.385Z" fill="#11F4CC"/>
<path d="M295.262 415.385C311.05 415.385 326.83 415.392 342.61 415.369C344.067 417.008 345.377 418.761 346.928 420.338C347.022 434.146 346.919 447.954 346.971 461.754C329.752 461.577 312.507 461.461 295.296 461.777C295.21 446.308 295.279 430.846 295.262 415.385Z" fill="#11F4CC"/>
<path d="M352.958 426.662C365.268 438.785 379.977 448.962 396.306 456.362C397.685 456.962 399.064 457.585 400.401 458.27C402.243 458.839 404.598 459.439 404.804 461.531C387.516 461.862 370.203 461.37 352.941 461.77C352.949 450.07 352.924 438.362 352.958 426.662Z" fill="#11F4CC"/>
<path d="M179.892 466.923C197.223 466.954 214.553 466.831 231.884 466.985C231.558 482.5 231.653 498.023 231.824 513.538C214.51 513.5 197.188 513.438 179.875 513.561C179.918 498.008 179.884 482.469 179.892 466.923Z" fill="#11F4CC"/>
<path d="M237.564 466.985C254.844 466.916 272.14 466.8 289.419 467.046C289.608 482.446 289.488 497.854 289.488 513.254C272.268 513.9 254.946 513.239 237.702 513.577C237.462 498.046 237.744 482.516 237.564 466.985Z" fill="#11F4CC"/>
<path d="M352.942 466.916C370.169 466.916 387.406 466.924 404.633 466.908C404.299 482.477 404.848 498.093 404.351 513.631C387.234 513.377 370.126 513.454 353.01 513.608C352.856 498.039 352.984 482.477 352.942 466.916Z" fill="#11F4CC"/>
<path d="M65.1761 518.7C82.2668 518.777 99.3575 518.769 116.448 518.7C116.602 534.262 116.465 549.823 116.517 565.385C99.3832 565.4 82.2496 565.385 65.1075 565.393C65.1504 549.831 65.0219 534.262 65.1761 518.7Z" fill="#11F4CC"/>
<path d="M122.573 518.7C139.663 518.777 156.754 518.777 173.836 518.7C173.99 534.262 173.862 549.831 173.905 565.393C156.771 565.393 139.638 565.385 122.504 565.393C122.547 549.831 122.418 534.262 122.573 518.7Z" fill="#11F4CC"/>
<path d="M237.642 518.769C254.921 518.685 272.209 518.816 289.488 518.7C289.496 534.223 289.556 549.739 289.428 565.262C272.149 565.516 254.852 565.4 237.564 565.323C237.702 549.808 237.547 534.285 237.642 518.769Z" fill="#11F4CC"/>
<path d="M295.211 518.916C312.413 518.477 329.658 518.923 346.886 518.7C347.066 534.254 346.92 549.823 346.954 565.385C329.726 565.393 312.499 565.393 295.262 565.385C295.22 549.9 295.339 534.408 295.211 518.916Z" fill="#11F4CC"/>
<path d="M353.019 518.7C370.126 518.762 387.243 518.792 404.359 518.685C404.633 534.246 404.685 549.846 404.394 565.408C387.243 565.369 370.092 565.4 352.941 565.392C352.984 549.831 352.847 534.262 353.019 518.7Z" fill="#11F4CC"/>
<path d="M410.407 518.7C427.695 518.816 444.982 518.685 462.262 518.769C462.356 534.285 462.21 549.808 462.339 565.331C445.008 565.485 427.669 565.346 410.338 565.393C410.381 549.831 410.27 534.262 410.407 518.7Z" fill="#11F4CC"/>
<path d="M65.0977 570.516C82.2398 570.569 99.3733 570.539 116.507 570.508C116.515 585.985 116.524 601.454 116.507 616.931C99.3733 616.923 82.2398 616.939 65.1062 616.923C65.1062 601.454 65.1148 585.985 65.0977 570.516Z" fill="#11F4CC"/>
<path d="M179.902 570.508C197.215 570.654 214.537 570.331 231.842 570.685C231.602 586.077 231.731 601.531 231.808 616.931C214.503 616.923 197.206 616.939 179.902 616.931C179.884 601.454 179.884 585.985 179.902 570.508Z" fill="#11F4CC"/>
<path d="M237.342 616.946C237.984 601.461 237.427 585.931 237.616 570.431C254.938 570.877 272.251 570.515 289.565 570.761C289.462 586.146 289.445 601.538 289.565 616.931C272.157 616.931 254.749 616.915 237.342 616.946Z" fill="#11F4CC"/>
<path d="M410.347 570.507C427.677 570.7 445.042 570.231 462.347 570.761C462.244 586.123 462.261 601.5 462.339 616.861C445.008 617.007 427.677 616.9 410.347 616.923C410.33 601.454 410.33 585.984 410.347 570.507Z" fill="#11F4CC"/>
<path d="M122.505 622.308C139.664 622.293 156.823 622.293 173.983 622.308C173.897 637.785 173.76 653.27 174.051 668.739C156.5 668.739 139.5 668.739 122.428 668.739C122.616 653.262 122.453 637.785 122.505 622.308Z" fill="#11F4CC"/>
<path d="M352.949 622.308C370.16 622.292 387.371 622.3 404.581 622.308C404.538 637.785 404.573 653.254 404.504 668.731C387.328 668.377 370.057 668.338 352.881 668.738C353.018 653.262 352.915 637.785 352.949 622.308Z" fill="#11F4CC"/>
<path d="M9 623.04C25.5979 622.987 42.204 622.987 58.8101 623.04C58.9587 637.911 58.6614 652.782 59 667.652C42.9719 667.773 27 667.879 10.9075 667.879C10.5194 667.909 9.42114 667.849 9.03303 667.879C9.03226 664.879 9.17341 661.207 9.03303 657.814C9 654.006 9.00826 650.19 9.03303 646.389C9.06606 642.641 9.06606 638.893 9.03303 635.153C8.99174 631.352 9.03303 627.551 9 623.75V623.04Z" fill="#11F4CC"/>
</g>
</svg>
