<svg width="42" height="42" viewBox="0 0 42 42" fill="none" xmlns="http://www.w3.org/2000/svg">
<path d="M33.9499 12.9074C30.4146 9.66982 25.7948 7.87402 21.001 7.87402C16.2072 7.87402 11.5873 9.66982 8.052 12.9074L3.42236 17.115C2.88087 17.6069 2.44821 18.2067 2.15214 18.8757C1.85607 19.5448 1.70313 20.2683 1.70312 20.9999C1.70312 21.7315 1.85607 22.455 2.15214 23.1241C2.44821 23.7931 2.88087 24.3929 3.42236 24.8848L8.052 29.0932C11.5874 32.3306 16.2073 34.1262 21.001 34.1262C25.7947 34.1262 30.4145 32.3306 33.9499 29.0932L38.5796 24.8857C39.1211 24.3937 39.5537 23.794 39.8498 23.1249C40.1459 22.4559 40.2988 21.7324 40.2988 21.0007C40.2988 20.2691 40.1459 19.5456 39.8498 18.8766C39.5537 18.2075 39.1211 17.6078 38.5796 17.1158L33.9499 12.9074Z" fill="#E9F2F8"/>
<path d="M21 28.875C25.3492 28.875 28.875 25.3492 28.875 21C28.875 16.6508 25.3492 13.125 21 13.125C16.6508 13.125 13.125 16.6508 13.125 21C13.125 25.3492 16.6508 28.875 21 28.875Z" fill="#02715D"/>
<path d="M21.0009 34.1266C16.2077 34.1239 11.5888 32.3286 8.05198 29.0936L3.42233 24.8844C2.88072 24.3925 2.44798 23.7928 2.1519 23.1237C1.85583 22.4547 1.70296 21.7311 1.70313 20.9995C1.70329 20.2678 1.85648 19.5443 2.15286 18.8754C2.44924 18.2065 2.88225 17.607 3.42408 17.1153L8.05198 12.9061C11.5877 9.6693 16.2074 7.87402 21.0009 7.87402C25.7945 7.87402 30.4142 9.6693 33.9499 12.9061L38.5796 17.1153C39.1212 17.6072 39.5539 18.2069 39.85 18.876C40.1461 19.545 40.2989 20.2686 40.2988 21.0003C40.2986 21.7319 40.1454 22.4554 39.849 23.1243C39.5526 23.7932 39.1196 24.3928 38.5778 24.8844L33.9499 29.0936C30.413 32.3286 25.7941 34.1239 21.0009 34.1266ZM21.0009 11.3784C17.0792 11.3802 13.3001 12.8494 10.407 15.4969L5.77731 19.7062C5.59664 19.8697 5.45222 20.0693 5.35332 20.2921C5.25442 20.5148 5.20324 20.7558 5.20308 20.9995C5.20291 21.2432 5.25377 21.4842 5.35236 21.7071C5.45096 21.93 5.59511 22.1298 5.77556 22.2936L10.4069 26.5028C13.2988 29.1525 17.0787 30.6223 21.0009 30.6223C24.9231 30.6223 28.703 29.1525 31.5949 26.5028L36.2245 22.2936C36.4052 22.13 36.5496 21.9304 36.6485 21.7077C36.7474 21.4849 36.7986 21.244 36.7988 21.0003C36.7989 20.7565 36.7481 20.5155 36.6495 20.2926C36.5509 20.0697 36.4067 19.87 36.2263 19.7062L31.5949 15.4969C28.7018 12.8494 24.9227 11.3802 21.0009 11.3784Z" fill="#11F4CC"/>
<path d="M21 28.875C19.4425 28.875 17.9199 28.4131 16.6249 27.5478C15.3299 26.6825 14.3205 25.4526 13.7245 24.0136C13.1284 22.5747 12.9725 20.9913 13.2763 19.4637C13.5802 17.9361 14.3302 16.5329 15.4315 15.4315C16.5329 14.3302 17.9361 13.5802 19.4637 13.2763C20.9913 12.9725 22.5747 13.1284 24.0136 13.7245C25.4526 14.3205 26.6825 15.3299 27.5478 16.6249C28.4131 17.9199 28.875 19.4425 28.875 21C28.8727 23.0879 28.0423 25.0896 26.566 26.566C25.0896 28.0423 23.0879 28.8727 21 28.875ZM21 16.625C20.1347 16.625 19.2888 16.8816 18.5694 17.3623C17.8499 17.8431 17.2892 18.5263 16.958 19.3258C16.6269 20.1252 16.5403 21.0049 16.7091 21.8535C16.8779 22.7022 17.2946 23.4817 17.9064 24.0936C18.5183 24.7054 19.2978 25.1221 20.1465 25.2909C20.9951 25.4597 21.8748 25.3731 22.6742 25.042C23.4737 24.7108 24.157 24.1501 24.6377 23.4306C25.1184 22.7112 25.375 21.8653 25.375 21C25.3739 19.84 24.9127 18.7278 24.0924 17.9076C23.2722 17.0874 22.16 16.6261 21 16.625Z" fill="#11F4CC"/>
</svg>
