<svg width="42" height="42" viewBox="0 0 42 42" fill="none" xmlns="http://www.w3.org/2000/svg">
<path d="M37.689 36.812C37.6782 36.7713 36.6165 32.696 36.1164 29.6206C35.7536 27.3884 32.9594 25.4587 27.7996 23.869L26.5395 24.7763C27.3794 25.0352 28.5957 25.4353 29.8292 25.9291C32.9565 27.1811 34.6352 28.3758 34.9612 29.5816C35.8577 32.8978 36.5022 36.3333 36.756 37.7679C36.8134 37.7815 36.8722 37.7908 36.9328 37.7908C36.9981 37.7908 37.0646 37.7825 37.1308 37.7651C37.5482 37.6561 37.7981 37.2294 37.689 36.812ZM8.8272 25.9292C10.1642 25.3939 11.4808 24.9688 12.3199 24.7143L11.0391 23.8055C7.0422 25.0192 2.90846 26.8343 2.45553 29.6206C1.95582 32.6944 0.893682 36.7713 0.882981 36.812C0.773948 37.2294 1.0238 37.6562 1.44111 37.7652C1.50742 37.7826 1.57381 37.7908 1.63919 37.7908C1.71464 37.7908 1.78844 37.7792 1.85897 37.7584H1.90216C2.15717 36.3179 2.80075 32.8902 3.69528 29.5817C4.02121 28.3759 5.6999 27.1812 8.8272 25.9292ZM13.6019 16.473C14.1138 17.7295 14.7923 18.7193 15.6173 19.4296C15.6265 19.456 15.6368 19.4822 15.649 19.5081C15.6546 19.5201 16.2012 20.7376 15.7338 21.7293C15.4432 22.3458 14.7885 22.788 13.7878 23.0438C13.2709 23.1759 12.734 23.3181 12.1874 23.471L19.5215 28.6752L26.6605 23.5342C26.0603 23.3659 25.4322 23.2018 24.7758 23.0417C23.8685 22.8205 23.2557 22.4133 22.9544 21.8313C22.4265 20.8115 22.9295 19.4963 22.9411 19.4663C22.9459 19.4545 22.9492 19.4425 22.9534 19.4307C23.7788 18.7202 24.4579 17.7301 24.97 16.4729C25.6854 14.7171 25.9539 12.7776 26.0463 11.3091C26.888 5.09181 24.6494 2.2007 24.542 2.24272C24.432 2.28576 23.3679 2.9744 22.9642 2.37183C22.5606 1.76926 21.615 0.253175 20.9179 0.21014C20.2207 0.167104 19.552 1.33898 17.2036 1.64023C14.8553 1.94148 14.1252 4.42496 14.1252 4.42496L13.1234 3.58448C12.972 3.45748 12.739 3.51715 12.6703 3.70241C11.8331 5.95705 12.2743 9.34904 12.4942 10.6634C12.5453 12.1723 12.7757 14.4453 13.6019 16.473ZM23.7142 24.3477L19.553 27.2423L15.192 24.2087C16.1175 23.7956 16.773 23.1884 17.1467 22.3954C17.4556 21.74 17.5134 21.0627 17.4684 20.477C18.0336 20.66 18.6406 20.7528 19.286 20.7528C19.9542 20.7528 20.5807 20.6525 21.1629 20.4565C21.1262 21.0891 21.2003 21.8334 21.5604 22.5363C21.9849 23.365 22.7081 23.972 23.7142 24.3477ZM14.046 9.83242C14.5504 9.39668 15.1159 9.07755 15.8338 9.1783C17.1095 9.35732 17.9375 10.3342 19.1484 10.4202C19.2805 10.4296 19.432 10.4159 19.5965 10.3863C19.1006 9.89952 18.486 9.41394 17.7232 8.95836C17.538 8.84776 17.4775 8.60806 17.5881 8.42288C17.6987 8.23769 17.9383 8.17724 18.1236 8.28783C19.1059 8.8744 19.8643 9.5111 20.4505 10.1453C20.7963 10.0232 21.1638 9.8739 21.5298 9.72495C20.924 8.68734 19.8466 7.46579 17.9373 6.56048C17.7424 6.46808 17.6593 6.23518 17.7518 6.04031C17.8442 5.84536 18.0772 5.76257 18.272 5.85473C20.4288 6.87743 21.6197 8.25808 22.2759 9.42698C23.0086 9.14597 23.6637 8.94914 24.0284 9.08598C24.1851 9.14472 24.3449 9.26297 24.5023 9.41699C24.5193 9.5853 24.5283 9.75588 24.5283 9.92849C24.5283 10.9774 24.4303 13.6575 23.5235 15.8836C22.617 18.1089 21.2309 19.1906 19.2861 19.1906C17.3413 19.1906 15.9552 18.1089 15.0486 15.8836C14.1416 13.6575 14.0437 10.9775 14.0437 9.92849C14.0436 9.89631 14.0454 9.86452 14.046 9.83242Z" fill="#11F4CC"/>
<path d="M27.7725 27.9417L21.5504 32.4223C21.4625 32.4856 21.3592 32.5173 21.2559 32.5173C21.1538 32.5173 21.0516 32.4863 20.9642 32.4243L14.5544 27.876C11.1054 28.8269 5.67256 30.9053 5.20586 32.6316C4.28782 36.027 3.61801 39.5424 3.32812 41.1625H4.79166C4.84012 36.2501 8.87221 32.2825 13.8399 32.2825C18.8075 32.2825 22.8396 36.2501 22.888 41.1625H38.7637C38.474 39.5425 37.804 36.0271 36.886 32.6316C36.4294 30.9429 31.2275 28.9194 27.7725 27.9417Z" fill="#11F4CC"/>
<path d="M13.8431 33.3916C9.56366 33.3916 6.08203 36.8732 6.08203 41.1527H6.41274C6.41274 41.1559 6.41249 41.1591 6.4124 41.1623H7.13842C7.45526 40.4168 8.05679 39.8773 8.5093 39.5538L11.1214 39.8167L11.7076 41.1623H15.807C15.9472 40.5468 16.1159 39.7163 16.2174 39.2074L18.491 38.5636C19.1688 39.0183 20.3766 39.8778 20.7288 40.4485C20.7522 40.6801 20.7644 40.915 20.7644 41.1526H21.6044C21.6042 36.8731 18.1226 33.3916 13.8431 33.3916ZM18.0474 37.8161L15.8357 38.4424C15.2236 38.0885 14.2994 37.6481 13.7801 37.4069L13.5215 35.7788L15.8514 34.5296C16.6512 34.7726 17.3896 35.1568 18.0383 35.653C18.0516 36.3024 18.0646 37.2284 18.0474 37.8161ZM11.2607 38.9864L8.85991 38.7448C8.64134 38.2572 8.39346 37.5668 8.23428 37.1051C8.76726 36.3685 9.4406 35.7403 10.2162 35.2612L12.686 35.8739L12.9478 37.5217C12.3716 37.9475 11.6727 38.5932 11.2607 38.9864Z" fill="#11F4CC"/>
</svg>
