<svg width="100%" height="auto" viewBox="0 0 1210 370" fill="none" xmlns="http://www.w3.org/2000/svg">
  <path d="M5 22H1201V361H5V22Z" fill="#FFFBFB" />
  <path
    d="M34.2419 0.718651C51.4454 0.158516 73.9962 0.757435 91.1347 1.57949C96.5058 1.83445 93.786 2.97412 97.4938 3.20143C104.745 3.64455 111.501 3.08561 118.668 3.61348C121.042 3.79399 118.086 5.59924 120.576 5.7472C134.223 6.54501 147.133 6.0852 160.956 6.46894C229.048 8.36223 295.981 9.0399 364.906 9.86242C387.632 10.1321 415.259 11.7704 438.733 11.0539C441.473 10.9687 439.84 9.38414 440.361 9.25354C448.538 7.25422 445.819 10.4531 451.159 10.8781C472.35 12.5562 495.914 12.7022 516.308 12.0906C524.984 11.8258 516.285 8.67849 525.021 10.4451C525.627 10.5644 523.426 12.2471 525.805 12.4266C531.201 12.8302 541.439 12.5294 545.621 12.6628C553.68 12.9282 555.014 12.9113 562.637 12.9305C573.058 12.9713 585.453 13.8078 596.634 13.4265C599.021 13.3401 595.862 11.6152 599.668 11.3216C603.477 11.0286 613.556 11.1748 616.953 11.5815C620.352 11.9883 618.905 13.3441 619.506 13.6548C624.454 16.2778 636.112 12.645 637.612 12.5552C664.961 11.0244 688.414 13.0938 714.086 13.0879C733.575 13.0791 754.414 12.3959 772.957 12.4895C795.05 12.6078 813.775 13.5426 835.237 13.3819C837.503 13.3669 834.848 11.3388 837.615 11.3164C867.007 11.0804 896.195 11.3015 925.46 12.6706C928.395 12.8097 924.612 14.5904 927.545 14.8359C945.497 16.2993 973.904 19.8147 984.566 12.0618C996.727 12.3645 1011.49 12.6773 1022.37 14.2401C1029.38 15.2459 1022.57 17.1858 1031.19 16.3581C1033.13 16.1736 1030.6 14.4748 1033.52 14.3267C1045.79 13.7048 1059.2 14.257 1071.33 13.3793C1073.8 13.1967 1073.13 11.6745 1073.83 11.4004C1079.71 9.18044 1089.5 12.8501 1091.63 13.1168C1107.88 15.1053 1119.74 14.3228 1134.88 14.3713C1138.39 14.3834 1134.24 12.3387 1137.62 12.277C1155.15 11.9839 1173.31 12.1597 1190.47 13.0669C1194.29 13.2737 1190.78 15.0154 1192.6 15.2033C1196.35 15.5793 1198.74 15.0667 1201 14.4834L1208.41 14.3796L1208.52 22C1209.19 24.5952 1209.95 27.024 1209.57 31.1462C1209.42 32.7729 1207.93 31.8564 1207.77 32.1534C1205.2 36.7967 1208.84 40.8315 1208.92 42.0258C1210.02 57.1342 1206.22 66.7914 1206.75 81.387C1206.82 83.1331 1208.71 79.1957 1208.79 84.104C1209.31 116.803 1208.79 151.387 1207.28 183.754C1207.05 188.787 1205.63 185.194 1205.46 185.511C1202.73 190.672 1206.38 194.012 1206.52 195.653C1207.51 208.598 1204.45 220.691 1208.8 229.486C1207.59 273.477 1208.92 317.307 1207.48 361L1207.57 367.391L1201 367.483C1190.24 367.128 1179.49 366.605 1168.75 365.834C1168.05 365.788 1169.29 363.987 1167.91 363.905C1151.31 362.893 1154.5 365.693 1143.51 369.117C1140.74 369.977 1132.32 365.843 1131.57 365.54C1128.86 364.423 1131.67 361.743 1130.77 361.527C1123.24 359.829 1124.47 368.691 1114.32 368.694C1114.01 368.68 1115.34 367.048 1114.49 366.886C1111.84 366.377 1109.22 367.025 1106.63 366.463C1100.7 365.164 1098.59 360.858 1089.54 363.364C1088.4 363.689 1090.15 368.717 1081.09 368.479C1077.48 368.38 1061.49 368.466 1057.01 368.141C1052.53 367.815 1055.61 366.195 1055.29 366.125C1043.23 363.983 1047.8 363.095 1041.76 359.923C1035.72 356.764 1037.4 364.3 1034.93 365.141C1032.47 365.979 1023.63 364.212 1021.45 363.598C1019.28 362.983 1021.99 361.953 1020.06 361.605C1007.26 359.333 1014.44 365.346 1010.22 366.542C1000.28 369.374 992.532 363.786 983.428 363.238C980.965 363.09 982.975 364.363 980.781 364.482C972.093 364.937 966.868 363.193 956.984 364.792C955.367 365.052 947.377 368.412 942.205 365.946C941.472 365.591 943.554 364.198 939.851 363.886C934.32 363.418 924.354 363.114 918.408 363.579C914.018 363.924 919.05 366.218 913.524 365.506C911.069 365.187 915.62 363.845 911.006 363.359C906.417 362.873 894.684 362.932 890.219 362.978C885.762 363.026 888.202 364.766 887.842 364.884C885.662 365.555 877.109 366.395 876.353 366.393C838.228 366.605 803.071 363.671 765.952 364.642C763.039 364.716 764.979 366.551 764.535 366.582C754.563 367.351 762.425 362.47 755.459 360.837C756.466 364.562 752.353 363.887 745.329 364.296C741.944 364.496 743.787 365.938 743.478 366.086C738.458 368.276 734.963 365.447 734.063 364.868C730.738 362.738 727.12 365.254 724.858 363.831C722.597 362.418 727.8 360.324 721.063 360.351C719.174 361.684 724.176 365.169 719.061 365.734C699.762 367.87 663.737 365.136 648.22 364.852C632.734 364.568 627.732 364.814 618.708 364.332C602.408 363.461 608.381 366.046 598.26 367.23C588.109 368.413 593.044 362.052 591.585 360.684C590.153 359.317 588.589 360.724 586.807 359.973C585.031 359.222 588.876 358.292 584.699 358.01C580.519 357.728 569.093 360.16 567.612 361.59C564.48 364.619 569.629 367.798 558.571 366.681C557.935 366.615 559.999 364.942 557.564 364.773C538.222 363.486 518.128 363.406 498.809 362.267C496.153 362.108 498.528 360.247 496.982 360.133C480.88 358.943 486.636 362.08 477.811 365.566C479.793 360.928 474.912 358.09 462.692 358.062C455.346 358.044 456.611 360.07 451.859 361.498C450.434 361.928 445.236 360.537 444.294 361.49C441.188 364.604 446.084 368.09 433.484 366.702C432.932 366.636 434.692 364.932 432.782 364.828C420.435 364.153 418.958 367.41 405.612 367.805C395.151 368.114 376.546 366.128 364.634 365.805C364.885 360.59 353.634 361.784 349.07 365.38C341.34 365.232 332.991 365.436 325.519 364.939C322.948 364.769 324.637 363.259 324.313 363.096C319.341 360.537 315.98 364.035 314.312 364.172C296.227 365.505 281.494 362.854 264.235 365.445C263.622 365.538 262.63 369.161 258.016 366.516C257.718 366.334 263.418 364.686 255.299 364.558C247.179 364.43 231.872 362.488 220.599 364.167C217.871 364.571 210.971 367.512 205.433 365.214C204.696 364.902 205.503 363.863 204.438 363.285C200.995 361.443 199.115 365.104 195.069 361.994C191.022 358.884 182.605 356.554 171.237 358.7C170.875 358.763 168.183 361.665 164.608 361.619C158.901 361.543 150.799 360.938 144.84 360.957C141.986 360.967 143.813 362.769 143.317 362.802C124.133 363.812 110.478 362.206 89.9262 361.508C86.1587 361.377 75.3319 363.834 68.0381 361.892C60.0292 359.765 68.2591 350.918 49.8507 353.026C42.426 353.869 33.0257 365.092 19.6827 359.278C14.7266 359.554 9.84127 359.667 5 359.686L6.31419 361C6.23689 340.564 7.86351 320.903 6.20015 299.923C6.10899 298.756 2.97662 295.066 3.01925 292.323C3.0886 288.25 4.55262 286.014 4.64907 283.106C5.09005 270.92 3.83748 259.769 4.03231 248.02C4.1031 243.559 5.61688 245.119 5.70149 239.798C5.78469 234.481 3.79132 230.936 4.75405 223.731C5.48787 218.289 9.56226 212.848 10.0372 205.625C6.01824 205.35 6.10102 200.389 5.04012 191.572C4.83428 189.877 3.43547 191.694 3.26595 190.893C2.54501 187.63 3.70431 184.61 2.91952 181.512C2.73103 180.758 1.35854 180.723 1.12698 180.107C-0.894266 174.867 2.19301 166.236 2.73055 164.753C4.77202 159.072 2.98693 156.416 3.79085 152.058C4.59466 147.708 5.59951 154.213 6.08729 149.131C7.09622 138.596 6.87456 125.06 6.93763 114.36C6.95433 110.091 5.12226 113.004 5.08211 112.393C4.61744 103.565 6.56624 94.6382 2.91689 89.7435C12.3527 83.623 2.00167 84.4202 3.89058 71.802C4.04336 70.808 8.5055 69.5436 9.16059 73.3596C9.81505 77.1754 8.42025 82.9619 9.44141 88.2562C9.68105 89.51 13.8624 96.692 14.1156 97.6719C16.0952 105.348 9.42709 106.436 9.06086 106.842C5.10849 111.447 9.61306 120.224 9.92432 122.535C11.3505 133.108 10.4128 142.091 11.4308 150.934C12.0887 156.718 16.4566 157.284 16.3229 161.826C15.881 176.923 9.78781 182.193 15.071 196.42C16.1978 199.471 20.9717 196.439 17.2178 207.37C16.9812 208.057 13.5471 216.173 15.7192 220.861C15.9931 221.45 17.3844 221.432 17.5013 222.208C18.2573 227.413 17.1489 230.884 17.6797 236.554C18.2106 242.224 19.002 249.041 18.5301 255.515C18.2479 259.416 15.6557 264.421 15.0211 266.289C13.1929 271.562 16.1904 277.216 13.9766 280.483C11.7516 283.777 8.37261 277.337 6.93501 285.975C10.5497 286.295 14.2598 287.03 17.8949 287.545C17.7677 306.476 16.5988 325.103 16.7585 344.098C16.7819 346.453 18.7252 344.044 18.8004 346.569C18.9453 351.57 18.7168 356.274 18.4907 361L5 347.509C10.3399 347.765 15.7091 348.017 21.5682 347.725C30.1181 347.29 39.4935 345.233 48.4336 344.714C53.8948 348.85 67.1608 347.446 76.798 347.824C80.1739 347.955 79.9484 349.06 82.3491 349.42C91.4065 350.753 87.1621 347.098 89.6452 346.522C100.298 344.068 101.21 352.341 113.77 352.136C114.435 352.128 122.569 347.718 123.689 347.444C130.808 345.653 124.868 348.979 129.323 349.304C137.456 349.9 143.108 350.953 152.651 349.661C155.434 349.279 162.109 346.53 167.513 348.656C168.224 348.935 167.831 350.392 168.403 350.478C178.76 351.901 179.032 347.32 184.95 345.769C190.87 344.218 200.013 347.38 201.873 348.291C206.741 350.649 198.143 349.299 197.88 349.53C194.783 352.283 201.451 351.809 206.546 352.042C207.283 356.533 214.408 356.263 211.827 352.265C211.534 351.828 207.569 352.247 206.546 352.042C211.018 347.636 218.848 347.071 227.497 351.189C231.546 353.119 227.718 355.369 240.016 354.546C245.598 354.174 243.441 351.082 248.366 350.239C259.619 348.315 274.241 351.2 285.842 350.745C290.052 350.58 285.951 348.888 288.828 348.717C296.465 348.257 303.199 349.527 310.869 348.877C311.564 348.816 309.866 347.044 312.251 347.021C330.33 346.815 346.074 347.95 364.951 347.982C374.072 347.996 390.378 347.019 399.827 347.215C416.202 347.545 436.347 350.122 450.337 349.496C459.461 349.095 457.459 347.323 461.369 346.116C468.913 343.775 482.267 347.968 484.065 348.617C484.12 348.638 476.269 349.056 480.458 349.966C482.894 351.861 483.976 348.625 484.065 348.617C485.246 349.036 500.93 349.439 504.044 349.1C505.736 348.915 504.79 347.236 505.672 347.171C526.644 345.668 547.653 345.241 568.924 346.026C569.298 346.06 568.734 347.939 569.615 347.995C581.929 348.83 589.814 346.532 599.97 345.168C610.125 343.805 618.177 344.261 624.189 347.486C631.85 347.08 642.843 348.505 649.169 349.37C655.494 350.235 656.377 346.579 656.933 346.507C674.292 344.193 684.327 346.286 702.337 346.612C710.899 346.773 727.884 346.243 737.154 345.843C744.481 345.521 748.895 346.377 755.646 345.83C756.56 345.756 755.637 344.129 755.916 344.066C763.45 342.118 759.829 346.098 761.385 346.809C767.025 349.393 770.509 350.77 780.158 349.554C782.383 349.275 788.866 343.545 792.923 343.21C798.197 342.785 796.207 344.839 801.73 344.342C802.202 344.301 802.104 343.034 805.512 343.09C821.335 343.332 838.585 344.07 855.027 343.943C857.273 343.93 854.393 341.92 857.639 341.869C872.865 341.631 889.555 341.705 904.389 342.646C908.041 342.884 905.752 344.291 906.544 344.709C911.411 347.237 918.311 343.564 919.45 343.494C946.611 341.729 967.398 345.053 995.081 343.47C996.587 343.377 1008.19 339.44 1013.36 342.817C1013.72 343.041 1018.84 346.497 1023.36 344.134C1023.64 343.986 1020.45 342.208 1026.02 342.389C1031.59 342.57 1040.55 341.382 1048.2 343.336C1050.63 343.952 1056.35 347.399 1063.58 344.651C1064.05 344.459 1075.21 338.247 1079.19 342.533C1079.84 343.239 1079.16 347.775 1087.79 345.449C1089.43 344.998 1086.44 343.986 1090.78 343.355C1097.44 342.381 1106.25 343.596 1114.43 341.575C1115.86 341.218 1121.93 338.139 1126.8 340.476C1127.56 340.842 1126.11 342.356 1128.68 342.525C1140.91 343.338 1153.72 342.325 1166.13 343.373C1170.53 343.741 1168.28 346.189 1172.87 346.845C1177.45 347.501 1186.69 348.132 1191.49 347.013C1196.29 345.894 1191.04 341.992 1198.23 341.68C1199.16 341.64 1200.08 341.603 1201 341.57L1181.57 361C1180.46 330.686 1182.62 300.633 1182.95 270.346C1183 265.718 1181.6 269.555 1181.58 262.734C1181.47 237.586 1180.16 194.169 1183.13 172.347C1185.51 154.863 1187.31 176.866 1188.28 163.506C1188.74 157.058 1184.21 150.083 1184.06 148.527C1182.61 133.323 1184.62 122.757 1184.01 109.072C1183.88 106.246 1182.04 109.018 1181.95 106.613C1181.63 98.3979 1182.45 89.7639 1182.3 81.914C1182.23 78.3923 1180.83 79.0412 1180.93 75.8008C1181.18 68.047 1181.77 61.1904 1183.08 53.6316C1183.2 52.9426 1184.95 57.5881 1185.02 51.8515C1185.11 43.0402 1186.29 32.2114 1185.26 22L1201 37.7413C1200.45 37.7964 1199.9 37.8579 1199.36 37.9262C1196.19 38.3296 1196.07 41.5388 1189.25 39.3225C1187.82 38.8596 1189.65 35.006 1181.71 38.3357C1180.38 38.889 1167.05 43.38 1160.5 40.4851C1158.78 39.7232 1154.37 36.5698 1150.56 37.0654C1150.04 37.1445 1152.11 38.8683 1148.96 39.0364C1137.82 39.599 1126.16 39.4151 1114.72 39.955C1111.67 40.1026 1116.22 41.8863 1111.67 42.0493C1099.15 42.5002 1083.53 42.046 1071.29 41.4877C1066.78 41.2785 1069.89 39.8008 1069.57 39.64C1064.29 37.0246 1061.16 40.5549 1059.41 40.7607C1048.51 41.9933 1040.22 40.335 1030.17 40.7738C1027.4 40.8905 1029.36 42.5737 1028.81 42.7238C1023.09 44.1904 1027.35 41.1674 1023.73 40.8342C1013.58 39.8907 1002.27 40.026 992.003 40.241C988.233 40.3225 992.47 42.2743 989.087 42.3249C969.063 42.6612 948.246 42.4745 928.704 41.3985C925.024 41.1923 927.339 39.6894 926.573 39.3461C921.287 36.9444 913.54 40.2203 911.758 40.5324C903.653 41.9572 900.505 40.6281 893.348 40.8762C858.384 42.1113 815.213 41.231 782.209 40.6872C739.202 39.9873 705.829 38.5575 664.817 38.9288C662.21 38.9505 664.839 40.9499 662.592 40.9943C633.581 41.4763 605.021 40.695 575.953 41.2725C573.567 41.3163 577.006 43.2118 573.177 43.3458C565.324 43.6342 555.376 43.5311 547.436 42.9259C543.563 42.6343 548.758 41.0079 544.859 40.7476C535.783 40.1378 526.053 40.0028 516.729 40.3067C512.762 40.4401 518.748 42.3786 513.591 42.401C478.461 42.5933 443.96 42.9272 408.46 40.4169C406.026 40.2445 403.891 36.3046 398.716 37.0601C398.326 38.1536 398.348 39.4398 398.177 40.6085C347.038 41.238 296.42 39.8722 245.136 39.661C242.974 39.6526 246.711 41.7401 242.525 41.7344C218.296 41.7035 194.769 42.2818 169.986 40.2069C167.527 40.004 168.788 36.3315 161.542 36.8869C160.264 36.9883 149.35 37.4781 146.528 38.2753C146.145 38.3955 148.136 40.1097 144.619 40.1597C124.182 40.42 102.765 40.0287 82.363 38.9813C79.0703 38.809 82.5768 36.9835 80.2316 36.8449C63.5957 35.8759 45.5007 37.2636 29.6043 35.6062C18.9638 34.4902 22.9032 31.3347 17.249 28.2287C16.4493 27.7905 9.86042 27.721 9.51969 25.9139C8.64493 21.3696 11.8364 16.3937 10.5268 11.55C10.2502 10.5067 1.42595 11.6304 6.65046 9.10919C7.01545 8.94045 13.4131 8.10369 14.9888 7.24841C16.0859 6.65709 14.1089 4.81922 16.3473 4.06227C18.5855 3.30602 21.045 4.84663 24.7559 3.95729C28.4651 3.05694 26.8342 0.966148 34.2419 0.718651ZM677.65 353.236C683.507 354.992 684.371 348.561 678.036 350.1C677.73 350.182 677.348 353.15 677.65 353.236ZM11.7483 324.997C8.91203 332.654 13.0825 337.894 15.2731 332.492C17.4612 327.091 12.6081 322.664 11.7483 324.997ZM9.67761 245.595C7.44131 254.545 16.5601 255.953 14.7167 246.368C14.6125 245.811 9.80747 245.072 9.67761 245.595ZM43.4703 27.3442C43.3894 27.2588 38.6531 27.1756 38.5399 27.2603C36.0179 29.3026 45.4887 29.4676 43.4703 27.3442ZM7.42317 166.803C6.18966 169.596 7.6136 177.64 9.14746 174.169C10.3814 171.375 8.95758 163.324 7.42317 166.803ZM983.182 360.099C983.274 360.195 986.67 360.281 986.602 359.74C986.371 357.995 981.646 358.487 983.182 360.099ZM7.31819 32.8859C6.97494 52.6715 -0.557584 64.6677 0.29239 43.1214C0.446175 39.2196 2.69446 51.5308 3.37356 46.5645C4.61077 37.4774 -0.11874 31.4434 2.41561 22.1702C2.87948 20.4914 7.3545 31.7572 7.32868 32.921C7.32518 32.9093 7.32168 32.8976 7.31819 32.8859ZM681.023 360.96C681.14 361.045 685.841 361.126 685.953 361.041C688.499 359 679.029 358.836 681.023 360.96ZM1181.32 364.075C1181.58 364.256 1192.49 364.426 1192.85 364.259C1198.54 360.92 1176.48 360.568 1181.32 364.075ZM364.447 365.666C359.318 367.719 353.182 367.961 349.094 365.382C354.191 365.519 359.322 365.539 364.447 365.666Z"
    fill="#FFFDFD" />
  <path
    d="M34.2419 0.718651C51.4454 0.158516 73.9962 0.757435 91.1347 1.57949C96.5058 1.83445 93.786 2.97412 97.4938 3.20143C104.745 3.64455 111.501 3.08561 118.668 3.61348C121.042 3.79399 118.086 5.59924 120.576 5.7472C134.223 6.54501 147.133 6.0852 160.956 6.46894C229.048 8.36223 295.981 9.0399 364.906 9.86242C387.632 10.1321 415.259 11.7704 438.733 11.0539C441.473 10.9687 439.84 9.38414 440.361 9.25354C448.538 7.25422 445.819 10.4531 451.159 10.8781C472.35 12.5562 495.914 12.7022 516.308 12.0906C524.984 11.8258 516.285 8.67849 525.021 10.4451C525.627 10.5644 523.426 12.2471 525.805 12.4266C531.201 12.8302 541.439 12.5294 545.621 12.6628C553.68 12.9282 555.014 12.9113 562.637 12.9305C573.058 12.9713 585.453 13.8078 596.634 13.4265C599.021 13.3401 595.862 11.6152 599.668 11.3216C603.477 11.0286 613.556 11.1748 616.953 11.5815C620.352 11.9883 618.905 13.3441 619.506 13.6548C624.454 16.2778 636.112 12.645 637.612 12.5552C664.961 11.0244 688.414 13.0938 714.086 13.0879C733.575 13.0791 754.414 12.3959 772.957 12.4895C795.05 12.6078 813.775 13.5426 835.237 13.3819C837.503 13.3669 834.848 11.3388 837.615 11.3164C867.007 11.0804 896.195 11.3015 925.46 12.6706C928.395 12.8097 924.612 14.5904 927.545 14.8359C945.497 16.2993 973.904 19.8147 984.566 12.0618C996.727 12.3645 1011.49 12.6773 1022.37 14.2401C1029.38 15.2459 1022.57 17.1858 1031.19 16.3581C1033.13 16.1736 1030.6 14.4748 1033.52 14.3267C1045.79 13.7048 1059.2 14.257 1071.33 13.3793C1073.8 13.1967 1073.13 11.6745 1073.83 11.4004C1079.71 9.18044 1089.5 12.8501 1091.63 13.1168C1107.88 15.1053 1119.74 14.3228 1134.88 14.3713C1138.39 14.3834 1134.24 12.3387 1137.62 12.277C1155.15 11.9839 1173.31 12.1597 1190.47 13.0669C1194.29 13.2737 1190.78 15.0154 1192.6 15.2033C1196.35 15.5793 1198.74 15.0667 1201 14.4834L1208.41 14.3796L1208.52 22C1209.19 24.5952 1209.95 27.024 1209.57 31.1462C1209.42 32.7729 1207.93 31.8564 1207.77 32.1534C1205.2 36.7967 1208.84 40.8315 1208.92 42.0258C1210.02 57.1342 1206.22 66.7914 1206.75 81.387C1206.82 83.1331 1208.71 79.1957 1208.79 84.104C1209.31 116.803 1208.79 151.387 1207.28 183.754C1207.05 188.787 1205.63 185.194 1205.46 185.511C1202.73 190.672 1206.38 194.012 1206.52 195.653C1207.51 208.598 1204.45 220.691 1208.8 229.486C1207.59 273.477 1208.92 317.307 1207.48 361L1207.57 367.391L1201 367.483C1190.24 367.128 1179.49 366.605 1168.75 365.834C1168.05 365.788 1169.29 363.987 1167.91 363.905C1151.31 362.893 1154.5 365.693 1143.51 369.117C1140.74 369.977 1132.32 365.843 1131.57 365.54C1128.86 364.423 1131.67 361.743 1130.77 361.527C1123.24 359.829 1124.47 368.691 1114.32 368.694C1114.01 368.68 1115.34 367.048 1114.49 366.886C1111.84 366.377 1109.22 367.025 1106.63 366.463C1100.7 365.164 1098.59 360.858 1089.54 363.364C1088.4 363.689 1090.15 368.717 1081.09 368.479C1077.48 368.38 1061.49 368.466 1057.01 368.141C1052.53 367.815 1055.61 366.195 1055.29 366.125C1043.23 363.983 1047.8 363.095 1041.76 359.923C1035.72 356.764 1037.4 364.3 1034.93 365.141C1032.47 365.979 1023.63 364.212 1021.45 363.598C1019.28 362.983 1021.99 361.953 1020.06 361.605C1007.26 359.333 1014.44 365.346 1010.22 366.542C1000.28 369.374 992.532 363.786 983.428 363.238C980.965 363.09 982.975 364.363 980.781 364.482C972.093 364.937 966.868 363.193 956.984 364.792C955.367 365.052 947.377 368.412 942.205 365.946C941.472 365.591 943.554 364.198 939.851 363.886C934.32 363.418 924.354 363.114 918.408 363.579C914.018 363.924 919.05 366.218 913.524 365.506C911.069 365.187 915.62 363.845 911.006 363.359C906.417 362.873 894.684 362.932 890.219 362.978C885.762 363.026 888.202 364.766 887.842 364.884C885.662 365.555 877.109 366.395 876.353 366.393C838.228 366.605 803.071 363.671 765.952 364.642C763.039 364.716 764.979 366.551 764.535 366.582C754.563 367.351 762.425 362.47 755.459 360.837C756.466 364.562 752.353 363.887 745.329 364.296C741.944 364.496 743.787 365.938 743.478 366.086C738.458 368.276 734.963 365.447 734.063 364.868C730.738 362.738 727.12 365.254 724.858 363.831C722.597 362.418 727.8 360.324 721.063 360.351C719.174 361.684 724.176 365.169 719.061 365.734C699.762 367.87 663.737 365.136 648.22 364.852C632.734 364.568 627.732 364.814 618.708 364.332C602.408 363.461 608.381 366.046 598.26 367.23C588.109 368.413 593.044 362.052 591.585 360.684C590.153 359.317 588.589 360.724 586.807 359.973C585.031 359.222 588.876 358.292 584.699 358.01C580.519 357.728 569.093 360.16 567.612 361.59C564.48 364.619 569.629 367.798 558.571 366.681C557.935 366.615 559.999 364.942 557.564 364.773C538.222 363.486 518.128 363.406 498.809 362.267C496.153 362.108 498.528 360.247 496.982 360.133C480.88 358.943 486.636 362.08 477.811 365.566C479.793 360.928 474.912 358.09 462.692 358.062C455.346 358.044 456.611 360.07 451.859 361.498C450.434 361.928 445.236 360.537 444.294 361.49C441.188 364.604 446.084 368.09 433.484 366.702C432.932 366.636 434.692 364.932 432.782 364.828C420.435 364.153 418.958 367.41 405.612 367.805C395.151 368.114 376.546 366.128 364.634 365.805C364.885 360.59 353.634 361.784 349.07 365.38C341.34 365.232 332.991 365.436 325.519 364.939C322.948 364.769 324.637 363.259 324.313 363.096C319.341 360.537 315.98 364.035 314.312 364.172C296.227 365.505 281.494 362.854 264.235 365.445C263.622 365.538 262.63 369.161 258.016 366.516C257.718 366.334 263.418 364.686 255.299 364.558C247.179 364.43 231.872 362.488 220.599 364.167C217.871 364.571 210.971 367.512 205.433 365.214C204.696 364.902 205.503 363.863 204.438 363.285C200.995 361.443 199.115 365.104 195.069 361.994C191.022 358.884 182.605 356.554 171.237 358.7C170.875 358.763 168.183 361.665 164.608 361.619C158.901 361.543 150.799 360.938 144.84 360.957C141.986 360.967 143.813 362.769 143.317 362.802C124.133 363.812 110.478 362.206 89.9262 361.508C86.1587 361.377 75.3319 363.834 68.0381 361.892C60.0292 359.765 68.2591 350.918 49.8507 353.026C42.426 353.869 33.0257 365.092 19.6827 359.278C14.7266 359.554 9.84127 359.667 5 359.686L6.31419 361C6.23689 340.564 7.86351 320.903 6.20015 299.923C6.10899 298.756 2.97662 295.066 3.01925 292.323C3.0886 288.25 4.55262 286.014 4.64907 283.106C5.09005 270.92 3.83748 259.769 4.03231 248.02C4.1031 243.559 5.61688 245.119 5.70149 239.798C5.78469 234.481 3.79132 230.936 4.75405 223.731C5.48787 218.289 9.56226 212.848 10.0372 205.625C6.01824 205.35 6.10102 200.389 5.04012 191.572C4.83428 189.877 3.43547 191.694 3.26595 190.893C2.54501 187.63 3.70431 184.61 2.91952 181.512C2.73103 180.758 1.35854 180.723 1.12698 180.107C-0.894266 174.867 2.19301 166.236 2.73055 164.753C4.77202 159.072 2.98693 156.416 3.79085 152.058C4.59466 147.708 5.59951 154.213 6.08729 149.131C7.09622 138.596 6.87456 125.06 6.93763 114.36C6.95433 110.091 5.12226 113.004 5.08211 112.393C4.61744 103.565 6.56624 94.6382 2.91689 89.7435C12.3527 83.623 2.00167 84.4202 3.89058 71.802C4.04336 70.808 8.5055 69.5436 9.16059 73.3596C9.81505 77.1754 8.42025 82.9619 9.44141 88.2562C9.68105 89.51 13.8624 96.692 14.1156 97.6719C16.0952 105.348 9.42709 106.436 9.06086 106.842C5.10849 111.447 9.61306 120.224 9.92432 122.535C11.3505 133.108 10.4128 142.091 11.4308 150.934C12.0887 156.718 16.4566 157.284 16.3229 161.826C15.881 176.923 9.78781 182.193 15.071 196.42C16.1978 199.471 20.9717 196.439 17.2178 207.37C16.9812 208.057 13.5471 216.173 15.7192 220.861C15.9931 221.45 17.3844 221.432 17.5013 222.208C18.2573 227.413 17.1489 230.884 17.6797 236.554C18.2106 242.224 19.002 249.041 18.5301 255.515C18.2479 259.416 15.6557 264.421 15.0211 266.289C13.1929 271.562 16.1904 277.216 13.9766 280.483C11.7516 283.777 8.37261 277.337 6.93501 285.975C10.5497 286.295 14.2598 287.03 17.8949 287.545C17.7677 306.476 16.5988 325.103 16.7585 344.098C16.7819 346.453 18.7252 344.044 18.8004 346.569C18.9453 351.57 18.7168 356.274 18.4907 361L5 347.509C10.3399 347.765 15.7091 348.017 21.5682 347.725C30.1181 347.29 39.4935 345.233 48.4336 344.714C53.8948 348.85 67.1608 347.446 76.798 347.824C80.1739 347.955 79.9484 349.06 82.3491 349.42C91.4065 350.753 87.1621 347.098 89.6452 346.522C100.298 344.068 101.21 352.341 113.77 352.136C114.435 352.128 122.569 347.718 123.689 347.444C130.808 345.653 124.868 348.979 129.323 349.304C137.456 349.9 143.108 350.953 152.651 349.661C155.434 349.279 162.109 346.53 167.513 348.656C168.224 348.935 167.831 350.392 168.403 350.478C178.76 351.901 179.032 347.32 184.95 345.769C190.87 344.218 200.013 347.38 201.873 348.291C206.741 350.649 198.143 349.299 197.88 349.53C194.783 352.283 201.451 351.809 206.546 352.042C207.283 356.533 214.408 356.263 211.827 352.265C211.534 351.828 207.569 352.247 206.546 352.042C211.018 347.636 218.848 347.071 227.497 351.189C231.546 353.119 227.718 355.369 240.016 354.546C245.598 354.174 243.441 351.082 248.366 350.239C259.619 348.315 274.241 351.2 285.842 350.745C290.052 350.58 285.951 348.888 288.828 348.717C296.465 348.257 303.199 349.527 310.869 348.877C311.564 348.816 309.866 347.044 312.251 347.021C330.33 346.815 346.074 347.95 364.951 347.982C374.072 347.996 390.378 347.019 399.827 347.215C416.202 347.545 436.347 350.122 450.337 349.496C459.461 349.095 457.459 347.323 461.369 346.116C468.913 343.775 482.267 347.968 484.065 348.617C484.12 348.638 476.269 349.056 480.458 349.966C482.894 351.861 483.976 348.625 484.065 348.617C485.246 349.036 500.93 349.439 504.044 349.1C505.736 348.915 504.79 347.236 505.672 347.171C526.644 345.668 547.653 345.241 568.924 346.026C569.298 346.06 568.734 347.939 569.615 347.995C581.929 348.83 589.814 346.532 599.97 345.168C610.125 343.805 618.177 344.261 624.189 347.486C631.85 347.08 642.843 348.505 649.169 349.37C655.494 350.235 656.377 346.579 656.933 346.507C674.292 344.193 684.327 346.286 702.337 346.612C710.899 346.773 727.884 346.243 737.154 345.843C744.481 345.521 748.895 346.377 755.646 345.83C756.56 345.756 755.637 344.129 755.916 344.066C763.45 342.118 759.829 346.098 761.385 346.809C767.025 349.393 770.509 350.77 780.158 349.554C782.383 349.275 788.866 343.545 792.923 343.21C798.197 342.785 796.207 344.839 801.73 344.342C802.202 344.301 802.104 343.034 805.512 343.09C821.335 343.332 838.585 344.07 855.027 343.943C857.273 343.93 854.393 341.92 857.639 341.869C872.865 341.631 889.555 341.705 904.389 342.646C908.041 342.884 905.752 344.291 906.544 344.709C911.411 347.237 918.311 343.564 919.45 343.494C946.611 341.729 967.398 345.053 995.081 343.47C996.587 343.377 1008.19 339.44 1013.36 342.817C1013.72 343.041 1018.84 346.497 1023.36 344.134C1023.64 343.986 1020.45 342.208 1026.02 342.389C1031.59 342.57 1040.55 341.382 1048.2 343.336C1050.63 343.952 1056.35 347.399 1063.58 344.651C1064.05 344.459 1075.21 338.247 1079.19 342.533C1079.84 343.239 1079.16 347.775 1087.79 345.449C1089.43 344.998 1086.44 343.986 1090.78 343.355C1097.44 342.381 1106.25 343.596 1114.43 341.575C1115.86 341.218 1121.93 338.139 1126.8 340.476C1127.56 340.842 1126.11 342.356 1128.68 342.525C1140.91 343.338 1153.72 342.325 1166.13 343.373C1170.53 343.741 1168.28 346.189 1172.87 346.845C1177.45 347.501 1186.69 348.132 1191.49 347.013C1196.29 345.894 1191.04 341.992 1198.23 341.68C1199.16 341.64 1200.08 341.603 1201 341.57L1181.57 361C1180.46 330.686 1182.62 300.633 1182.95 270.346C1183 265.718 1181.6 269.555 1181.58 262.734C1181.47 237.586 1180.16 194.169 1183.13 172.347C1185.51 154.863 1187.31 176.866 1188.28 163.506C1188.74 157.058 1184.21 150.083 1184.06 148.527C1182.61 133.323 1184.62 122.757 1184.01 109.072C1183.88 106.246 1182.04 109.018 1181.95 106.613C1181.63 98.3979 1182.45 89.7639 1182.3 81.914C1182.23 78.3923 1180.83 79.0412 1180.93 75.8008C1181.18 68.047 1181.77 61.1904 1183.08 53.6316C1183.2 52.9426 1184.95 57.5881 1185.02 51.8515C1185.11 43.0402 1186.29 32.2114 1185.26 22L1201 37.7413C1200.45 37.7964 1199.9 37.8579 1199.36 37.9262C1196.19 38.3296 1196.07 41.5388 1189.25 39.3225C1187.82 38.8596 1189.65 35.006 1181.71 38.3357C1180.38 38.889 1167.05 43.38 1160.5 40.4851C1158.78 39.7232 1154.37 36.5698 1150.56 37.0654C1150.04 37.1445 1152.11 38.8683 1148.96 39.0364C1137.82 39.599 1126.16 39.4151 1114.72 39.955C1111.67 40.1026 1116.22 41.8863 1111.67 42.0493C1099.15 42.5002 1083.53 42.046 1071.29 41.4877C1066.78 41.2785 1069.89 39.8008 1069.57 39.64C1064.29 37.0246 1061.16 40.5549 1059.41 40.7607C1048.51 41.9933 1040.22 40.335 1030.17 40.7738C1027.4 40.8905 1029.36 42.5737 1028.81 42.7238C1023.09 44.1904 1027.35 41.1674 1023.73 40.8342C1013.58 39.8907 1002.27 40.026 992.003 40.241C988.233 40.3225 992.47 42.2743 989.087 42.3249C969.063 42.6612 948.246 42.4745 928.704 41.3985C925.024 41.1923 927.339 39.6894 926.573 39.3461C921.287 36.9444 913.54 40.2203 911.758 40.5324C903.653 41.9572 900.505 40.6281 893.348 40.8762C858.384 42.1113 815.213 41.231 782.209 40.6872C739.202 39.9873 705.829 38.5575 664.817 38.9288C662.21 38.9505 664.839 40.9499 662.592 40.9943C633.581 41.4763 605.021 40.695 575.953 41.2725C573.567 41.3163 577.006 43.2118 573.177 43.3458C565.324 43.6342 555.376 43.5311 547.436 42.9259C543.563 42.6343 548.758 41.0079 544.859 40.7476C535.783 40.1378 526.053 40.0028 516.729 40.3067C512.762 40.4401 518.748 42.3786 513.591 42.401C478.461 42.5933 443.96 42.9272 408.46 40.4169C406.026 40.2445 403.891 36.3046 398.716 37.0601C398.326 38.1536 398.348 39.4398 398.177 40.6085C347.038 41.238 296.42 39.8722 245.136 39.661C242.974 39.6526 246.711 41.7401 242.525 41.7344C218.296 41.7035 194.769 42.2818 169.986 40.2069C167.527 40.004 168.788 36.3315 161.542 36.8869C160.264 36.9883 149.35 37.4781 146.528 38.2753C146.145 38.3955 148.136 40.1097 144.619 40.1597C124.182 40.42 102.765 40.0287 82.363 38.9813C79.0703 38.809 82.5768 36.9835 80.2316 36.8449C63.5957 35.8759 45.5007 37.2636 29.6043 35.6062C18.9638 34.4902 22.9032 31.3347 17.249 28.2287C16.4493 27.7905 9.86042 27.721 9.51969 25.9139C8.64493 21.3696 11.8364 16.3937 10.5268 11.55C10.2502 10.5067 1.42595 11.6304 6.65046 9.10919C7.01545 8.94045 13.4131 8.10369 14.9888 7.24841C16.0859 6.65709 14.1089 4.81922 16.3473 4.06227C18.5855 3.30602 21.045 4.84663 24.7559 3.95729C28.4651 3.05694 26.8342 0.966148 34.2419 0.718651ZM677.65 353.236C683.507 354.992 684.371 348.561 678.036 350.1C677.73 350.182 677.348 353.15 677.65 353.236ZM11.7483 324.997C8.91203 332.654 13.0825 337.894 15.2731 332.492C17.4612 327.091 12.6081 322.664 11.7483 324.997ZM9.67761 245.595C7.44131 254.545 16.5601 255.953 14.7167 246.368C14.6125 245.811 9.80747 245.072 9.67761 245.595ZM43.4703 27.3442C43.3894 27.2588 38.6531 27.1756 38.5399 27.2603C36.0179 29.3026 45.4887 29.4676 43.4703 27.3442ZM7.42317 166.803C6.18966 169.596 7.6136 177.64 9.14746 174.169C10.3814 171.375 8.95758 163.324 7.42317 166.803ZM983.182 360.099C983.274 360.195 986.67 360.281 986.602 359.74C986.371 357.995 981.646 358.487 983.182 360.099ZM7.31819 32.8859C6.97494 52.6715 -0.557584 64.6677 0.29239 43.1214C0.446175 39.2196 2.69446 51.5308 3.37356 46.5645C4.61077 37.4774 -0.11874 31.4434 2.41561 22.1702C2.87948 20.4914 7.3545 31.7572 7.32868 32.921C7.32518 32.9093 7.32168 32.8976 7.31819 32.8859ZM681.023 360.96C681.14 361.045 685.841 361.126 685.953 361.041C688.499 359 679.029 358.836 681.023 360.96ZM1181.32 364.075C1181.58 364.256 1192.49 364.426 1192.85 364.259C1198.54 360.92 1176.48 360.568 1181.32 364.075ZM364.447 365.666C359.318 367.719 353.182 367.961 349.094 365.382C354.191 365.519 359.322 365.539 364.447 365.666Z"
    fill="#FFFEFE" />
</svg>