<svg width="222" height="181" viewBox="0 0 222 181" fill="none" xmlns="http://www.w3.org/2000/svg">
<path d="M86.3316 153.473C90.9131 149.227 99.3306 149.499 103.515 154.123C104.224 154.807 104.699 155.658 105.166 156.5C105.691 157.792 106.155 159.143 106.072 160.547C103.689 160.72 101.302 160.899 98.9081 160.818C98.6734 159.783 98.3392 158.708 97.5549 157.914C95.9228 156.332 92.8187 156.44 91.3357 158.159C90.0046 159.656 89.5572 161.655 89.3777 163.547C89.1236 165.075 89.1567 166.636 89.4081 168.164C89.6428 170.087 90.1592 172.135 91.6809 173.541C92.8656 174.476 94.5834 175.188 96.0912 174.494C97.8062 173.917 98.6181 172.221 98.9357 170.657C101.41 170.634 103.885 170.75 106.354 170.903C106.13 173.316 105.379 175.843 103.512 177.603C100.118 181.034 94.3956 181.811 89.8389 180.182C85.9035 178.626 83.2606 175.03 82.3576 171.198C81.7058 168.314 81.5125 165.308 81.982 162.387C82.3493 159.094 83.7439 155.79 86.3316 153.473Z" fill="#0D2128"/>
<path d="M0 151.049C2.70918 151.111 5.42111 151.012 8.12753 151.085C8.99469 152.669 9.63539 154.358 10.4225 155.981C11.7978 159.072 13.2946 162.117 14.5705 165.245C16.6721 160.532 18.7019 155.782 20.9029 151.106C23.7612 150.979 26.6527 151.144 29.522 151.025C29.5772 160.763 29.4999 170.5 29.5496 180.235C27.158 180.235 24.7637 180.235 22.3693 180.235C22.3749 174.596 22.3583 168.96 22.3776 163.321L22.1843 163.311C21.1377 165.848 19.8093 168.282 18.6798 170.79C17.9286 172.253 17.3349 173.789 16.4953 175.21C15.0703 175.135 13.6425 175.192 12.2148 175.171C10.718 171.686 9.21838 168.204 7.69119 164.732C7.47026 164.222 7.29351 163.691 6.9345 163.251C7.03668 168.911 6.90964 174.576 7.01735 180.235C4.67823 180.235 2.33912 180.235 0 180.235C0 170.506 0 160.778 0 151.049Z" fill="#0D2128"/>
<path d="M43.3773 151.042C46.0975 151.091 48.8205 151.055 51.5435 151.06C53.5457 157.17 55.6362 163.257 57.6578 169.365C58.9226 172.977 60.0024 176.648 61.3501 180.236C58.8508 180.236 56.3487 180.236 53.8495 180.236C53.3468 178.597 52.7807 176.972 52.3913 175.304C49.0552 175.353 45.7081 175.227 42.3748 175.338C41.9302 176.938 41.48 178.541 41.0023 180.133L40.8614 180.223C38.3539 180.254 35.8435 180.226 33.3359 180.236C36.6858 170.507 40.0329 160.774 43.3773 151.042ZM47.3375 159.166C46.2356 162.672 45.1917 166.201 43.9683 169.673C46.2135 169.709 48.4587 169.637 50.7039 169.707C49.5606 166.198 48.5278 162.659 47.3375 159.166Z" fill="#0D2128"/>
<path d="M58.6651 151.077C65.9282 151.02 73.1941 151.134 80.4572 151.025C80.4766 153.081 80.4545 155.137 80.4738 157.193C78.0436 157.193 75.6133 157.193 73.1831 157.193C73.1831 164.874 73.1831 172.554 73.1831 180.235C70.8163 180.235 68.4496 180.235 66.0856 180.235C66.1353 172.554 66.0663 164.872 66.1105 157.193C63.6084 157.193 61.1036 157.193 58.6016 157.193C58.6927 155.155 58.5408 153.11 58.6651 151.077Z" fill="#0D2128"/>
<path d="M109.397 151.044C111.871 151.088 114.345 151.073 116.817 151.047C116.814 154.822 116.817 158.597 116.817 162.371C119.855 162.371 122.893 162.371 125.931 162.371C125.931 158.594 125.931 154.819 125.931 151.042C128.322 151.075 130.719 151.096 133.111 151.031C133.111 160.766 133.111 170.501 133.111 180.236C130.717 180.236 128.325 180.236 125.931 180.236C125.931 176.352 125.931 172.469 125.931 168.585C122.893 168.585 119.855 168.585 116.817 168.585C116.817 172.469 116.814 176.352 116.817 180.236C114.34 180.236 111.86 180.236 109.383 180.236C109.421 170.506 109.386 160.777 109.397 151.044Z" fill="#0D2128"/>
<path d="M146.93 151.042C151.345 151.166 155.775 150.876 160.18 151.244C163.61 151.637 167.015 153.217 168.951 155.982C171.185 159.146 171.63 163.071 171.5 166.776C171.296 169.898 170.597 173.15 168.526 175.69C166.554 178.175 163.37 179.638 160.128 179.993C159.321 180.071 158.523 180.226 157.714 180.234C154.115 180.239 150.517 180.234 146.921 180.236C146.927 170.504 146.91 160.772 146.93 151.042ZM154.212 174.193C155.941 174.144 157.708 174.227 159.401 173.839C161.136 173.463 162.616 172.259 163.292 170.722C164.215 168.472 164.055 166.028 164.03 163.664C163.803 161.701 163.436 159.423 161.566 158.214C159.434 156.8 156.717 157.178 154.262 157.023C154.151 162.745 154.262 168.469 154.212 174.193Z" fill="#0D2128"/>
<path d="M181.468 151.031C184.174 151.122 186.883 151.026 189.59 151.083C191.216 155.769 192.749 160.489 194.364 165.181C196.044 170.211 197.836 175.205 199.518 180.236C196.991 180.236 194.464 180.233 191.94 180.236C191.382 178.61 190.871 176.966 190.468 175.304C187.181 175.286 183.892 175.332 180.609 175.283C180.125 176.932 179.615 178.576 179.162 180.236C176.632 180.236 174.105 180.236 171.578 180.236C174.906 170.511 178.154 160.761 181.468 151.031ZM182.208 169.719C184.398 169.66 186.593 169.688 188.786 169.696C187.618 166.211 186.543 162.698 185.458 159.187C184.389 162.703 183.238 166.195 182.208 169.719Z" fill="#0D2128"/>
<path d="M194.797 150.992C197.456 151.186 200.157 150.93 202.8 151.114C204.714 155.065 206.503 159.073 208.362 163.047C210.406 159.099 212.123 155.008 214.093 151.026C216.705 151.085 219.323 151.096 221.938 151.018C219.519 155.619 217.155 160.246 214.772 164.864C213.852 166.563 213.032 168.308 212.107 170.001C212.082 173.411 212.101 176.823 212.096 180.236C209.701 180.236 207.307 180.236 204.916 180.236C204.893 176.875 204.96 173.515 204.882 170.156C201.618 163.725 198.1 157.408 194.797 150.992Z" fill="#0D2128"/>
<path d="M30.0026 6.17915C31.7618 4.45224 34.4958 3.81015 36.9537 4.34609C75.2522 8.73715 113.556 13.0531 151.844 17.5478C152.772 17.6487 153.705 17.7264 154.616 17.9361C154.97 18.4229 154.981 19.1504 154.365 19.4404C153.534 19.5284 152.714 19.3498 151.896 19.2488C113.059 14.8033 74.2194 10.3398 35.3602 6.04452C33.2614 6.05746 31.2454 7.31316 30.3672 9.09962C29.5304 10.5987 29.7596 12.3541 29.9281 13.9723C32.3307 36.5567 34.6753 59.1438 37.0034 81.7334L37.0117 81.8525C38.5306 95.7403 39.8976 109.644 41.3944 123.537C41.6733 125.465 41.5629 127.503 42.4659 129.305C43.7142 132.016 46.567 133.996 49.6766 134.39C57.5031 134.496 65.3268 134.206 73.1534 134.154C78.9445 134.18 84.7329 134.123 90.5214 133.986C98.9112 133.807 107.304 133.986 115.694 133.763C124.037 133.577 132.382 133.714 140.725 133.492C147.757 133.3 154.793 133.44 161.827 133.295C172.479 133.033 183.142 133.17 193.788 132.816C196.149 132.272 197.494 129.81 197.093 127.651C195.461 116.36 193.782 105.074 192.125 93.7855C192.114 93.7105 192.095 93.5629 192.084 93.4878C190.228 80.4596 188.286 67.4443 186.411 54.4187C186.204 53.8543 186.71 53.4685 187.019 53.0595C187.983 53.0206 188.375 53.8983 188.322 54.675C191.808 78.4893 195.254 102.309 198.786 126.118C198.864 127.254 199.27 128.391 198.957 129.533C198.728 131.288 197.731 132.984 196.11 133.932C194.809 134.771 193.175 134.939 191.634 134.928C185.928 134.91 180.222 134.926 174.517 135.089C167.709 135.281 160.896 135.099 154.089 135.325C148.469 135.519 142.846 135.389 137.226 135.488C127.387 135.791 117.544 135.635 107.704 135.886C100.148 136.044 92.5871 135.881 85.0312 136.07C80.3392 136.158 75.6499 136.259 70.9551 136.223C63.6726 136.27 56.3902 136.575 49.1077 136.461C46.8542 136.088 44.6366 135.216 42.9851 133.701C41.0188 132.026 39.8037 129.642 39.5082 127.179C37.7463 110.252 35.9595 93.3299 34.2169 76.4051C32.0794 55.1825 29.7844 33.9625 27.5972 12.7424C27.3708 10.3657 28.1357 7.85946 30.0026 6.17915Z" fill="#EFEAE1"/>
<path d="M164.561 21.3066C165.273 21.5008 166.013 21.5552 166.753 21.5345C167.132 23.9345 167.198 26.3631 167.568 28.7632C167.673 29.5269 167.504 30.3477 167.844 31.0726C169.203 31.4014 170.622 31.3315 171.998 31.5853C172.045 32.305 172.144 33.0196 172.299 33.7264C170.106 33.5918 167.944 33.1465 165.74 33.1283C165.284 29.7936 165.107 26.4356 164.66 23.0983C164.569 22.5054 164.569 21.9047 164.561 21.3066Z" fill="#2D3F3C"/>
<path d="M45.2685 22.8312C45.6137 22.4299 46.0446 22.0079 46.6549 22.1969C71.5097 24.6747 96.3645 27.0877 121.219 29.5628C126.08 30.1221 130.976 30.4638 135.82 31.1292C136.431 31.5357 137.035 32.1648 136.939 32.9183C136.685 33.4231 136.276 34.0911 135.566 33.9565C125.737 33.0839 115.923 31.9707 106.091 31.1551C106.793 37.5113 107.638 43.8519 108.278 50.2132C108.792 50.7414 109.736 50.5835 110.424 50.832C115.378 52.2198 119.642 55.2826 122.921 58.9747C122.36 59.5417 121.89 60.4245 121.073 60.6213C117.759 57.2762 113.675 54.2833 108.775 53.4211C108.93 55.9144 109.297 58.3999 109.643 60.8802C108.568 60.8802 107.497 60.8802 106.425 60.8802C106.105 58.3507 105.931 55.803 105.478 53.2942C102.551 53.2373 99.8276 54.6302 97.7122 56.427C95.5001 58.5086 94.1055 61.3307 93.8708 64.2589C93.8901 65.8098 93.7437 67.3814 94.0751 68.9115C94.2049 70.0119 94.6634 71.0553 94.7296 72.1634C93.9647 72.9453 93.2853 73.8152 92.3574 74.4392C90.9766 71.6559 90.3524 68.5931 90.3055 65.5354C90.3662 60.8466 92.4485 56.0775 96.359 53.0638C98.5959 51.4922 101.289 50.3246 104.116 50.2158C104.44 50.1537 105.163 50.2573 105.097 49.7602C104.401 43.4506 103.639 37.1488 102.973 30.8392C85.039 29.0295 67.0828 27.3181 49.1348 25.6533C49.1459 27.8333 49.5629 29.99 49.7037 32.1648C50.129 35.9526 50.4853 39.7482 50.952 43.5283C56.6244 43.8804 62.2775 44.5095 67.9499 44.8875C68.8254 44.9393 69.7947 45.3147 70.0571 46.1743C70.4078 49.5867 70.7116 53.0043 71.0375 56.4141C72.2554 57.1416 73.6113 57.719 74.6028 58.7468C77.0054 61.0847 78.2978 64.3729 78.1542 67.6118C78.2702 70.1879 77.2153 72.8469 75.1137 74.5557C74.4453 75.0761 73.65 75.4204 72.9264 75.8632C73.1032 76.6968 73.1667 77.5461 73.186 78.3979C73.3158 79.6303 73.5561 80.8627 73.4373 82.1054C73.3959 82.429 73.1667 82.6931 72.9485 82.9339C71.6367 84.2414 70.5349 85.7146 69.2617 87.0557C65.2988 86.9547 61.3579 86.556 57.3949 86.4421C56.7736 86.4758 56.0224 86.046 55.5004 86.4861C55.3679 88.8448 55.9616 91.1646 56.0721 93.5129C56.3124 95.0585 56.3593 96.6172 56.5858 98.1654C56.5112 99.4056 57.3369 100.814 56.4974 101.943C55.5612 103.028 54.6305 104.125 53.5894 105.127C50.9437 79.1539 48.1876 53.1933 45.5558 27.2171C45.4508 25.7543 45.1525 24.3044 45.2685 22.8312ZM51.3386 46.8733C51.6148 50.6767 52.018 54.4748 52.435 58.2678C53.2497 66.4648 54.1555 74.6592 54.9509 82.8588C57.0829 83.1876 59.248 83.0841 61.3855 83.3585C64.2024 83.4181 67.0055 83.7831 69.8251 83.7961C70.4548 83.7158 70.0902 83.0116 70.1565 82.6388C69.0684 71.0708 67.8036 59.5184 66.7762 47.9478C65.2076 48.0022 63.6749 47.6319 62.1091 47.6397C60.5598 47.4015 58.9884 47.4222 57.4391 47.2022C55.401 47.153 53.385 46.7698 51.3386 46.8733ZM71.4876 60.0206C71.7583 64.1347 72.2222 68.2409 72.6392 72.3498C73.7798 71.498 74.5972 70.2837 74.8844 68.94C75.3539 67.3011 74.9921 65.5897 74.5309 63.9871C74.0394 62.3741 72.8436 61.0692 71.4876 60.0206Z" fill="#EFEAE1"/>
<path d="M172.572 22.2773C173.395 22.3214 174.207 22.4689 175.019 22.601C175.237 26.4639 175.743 30.3035 176.069 34.1586C175.301 34.0214 174.522 33.967 173.749 33.8816C173.384 30.0109 173.158 26.1247 172.572 22.2773Z" fill="#2D3F3C"/>
<path d="M176.436 22.7529C177.203 22.8746 178.037 22.7063 178.772 22.9316C179.374 24.3245 179.73 25.8029 180.227 27.232C180.542 28.3738 181.05 29.469 181.208 30.647L181.382 30.6651C181.721 28.2081 182.141 25.764 182.514 23.3122C183.265 23.4209 184.014 23.5529 184.773 23.6358C184.201 27.3718 183.649 31.113 183.044 34.8465C182.152 34.7559 181.255 34.7093 180.385 34.5047C179.123 30.5719 177.83 26.6443 176.436 22.7529Z" fill="#2D3F3C"/>
<path d="M186.086 23.7559C188.188 23.9552 190.297 24.1157 192.38 24.4575C192.416 25.1332 192.46 25.809 192.474 26.4847C191.162 26.4951 189.88 26.2232 188.582 26.1274C188.594 26.9171 188.657 27.7042 188.718 28.4913C189.756 28.8071 190.85 28.7372 191.913 28.9185C191.902 29.6589 191.913 30.3968 191.988 31.1347C190.971 31.0752 189.974 30.8706 188.961 30.8033C189.165 31.6629 189.16 32.5432 189.157 33.4209C190.521 33.3872 191.861 33.6668 193.216 33.7782C193.352 34.485 193.266 35.2073 193.302 35.9219C191.283 35.6578 189.245 35.5646 187.24 35.228C186.818 31.4092 186.602 27.567 186.086 23.7559Z" fill="#2D3F3C"/>
<path d="M51.3359 46.8741C53.3823 46.7706 55.3983 47.1537 57.4364 47.2029C58.9857 47.423 60.5571 47.4023 62.1064 47.6405C63.6722 47.6327 65.2049 48.003 66.7735 47.9486C67.8009 59.5191 69.0657 71.0716 70.1538 82.6395C70.0875 83.0124 70.4521 83.7166 69.8224 83.7969C67.0028 83.7839 64.1997 83.4188 61.3828 83.3593C59.2453 83.0849 57.0802 83.1884 54.9482 82.8596C54.1528 74.66 53.247 66.4656 52.4323 58.2686C52.0153 54.4756 51.6121 50.6775 51.3359 46.8741Z" fill="#0D2128"/>
<path d="M71.4863 60.0215C72.8423 61.0701 74.0381 62.375 74.5297 63.9879C74.9909 65.5906 75.3526 67.302 74.8832 68.9408C74.5959 70.2846 73.7785 71.4988 72.6379 72.3506C72.2209 68.2418 71.757 64.1355 71.4863 60.0215Z" fill="#0D2128"/>
<path d="M37.0078 81.8527C37.1238 81.8449 37.3558 81.832 37.4718 81.8242C39.0321 96.846 40.5593 111.87 42.1997 126.884C42.4924 130.105 45.1712 132.912 48.4797 133.722C50.4819 134.362 52.5973 133.927 54.6547 133.898C61.4677 133.919 68.2807 133.802 75.0937 133.815C82.0834 133.474 89.087 133.683 96.0822 133.569C99.9485 133.533 103.815 133.608 107.676 133.388C114.859 133.344 122.044 133.354 129.23 133.279C130.978 133.173 132.729 133.052 134.486 133.098C139.542 133.111 144.602 133.036 149.658 133.044C159.321 132.653 169.004 133.013 178.669 132.619C183.596 132.531 188.534 132.666 193.452 132.464C194.982 132.179 196.38 130.991 196.543 129.492C196.772 127.661 196.385 125.836 196.126 124.029C194.8 114.361 193.243 104.722 191.878 95.0621C191.801 94.6168 191.967 94.1948 192.121 93.7857C193.778 105.074 195.457 116.36 197.089 127.651C197.49 129.81 196.145 132.272 193.784 132.816C183.138 133.171 172.475 133.033 161.823 133.295C154.789 133.44 147.753 133.3 140.721 133.492C132.379 133.714 124.033 133.577 115.69 133.764C107.3 133.986 98.9074 133.808 90.5175 133.986C84.7291 134.123 78.9407 134.18 73.1495 134.155C65.323 134.206 57.4992 134.496 49.6727 134.39C46.5631 133.997 43.7103 132.016 42.4621 129.305C41.559 127.503 41.6695 125.466 41.3905 123.537C39.8937 109.644 38.5267 95.7405 37.0078 81.8527Z" fill="#0D2128"/>
<path d="M32.085 7.60737C33.209 6.50961 34.9239 6.39569 36.4428 6.56139C57.8981 8.96405 79.3616 11.3149 100.803 13.8341C114.139 15.3073 127.464 16.8892 140.8 18.3494C145.387 18.9812 150.013 19.3825 154.603 20.0013C154.31 21.4356 153.349 22.6214 152.797 23.9599C152.584 24.413 152.357 24.8946 151.935 25.2079C151.457 25.3321 150.949 25.2234 150.466 25.226C150.347 25.081 150.228 24.936 150.115 24.791C149.806 25.1017 149.35 25.0732 148.941 25.0551C145.801 24.7962 142.703 24.2655 139.566 23.9832C139.499 23.9315 139.372 23.8253 139.306 23.7735C138.152 23.8641 136.981 23.8072 135.851 23.5483C135.583 23.4266 135.346 23.5819 135.125 23.7036C135.036 23.6208 134.951 23.5379 134.865 23.4551C132.722 23.3101 130.623 22.8156 128.475 22.7327C126.431 22.4246 124.357 22.3573 122.316 22.0311C119.077 21.8058 115.901 21.1171 112.648 21.0058C112.697 20.8893 112.8 20.6511 112.849 20.532C111.968 21.2388 110.844 20.6951 109.845 20.5993C107.039 20.4 104.227 20.1436 101.463 19.6517C99.5382 19.7216 97.6603 19.2012 95.7382 19.2478C94.6197 18.8776 93.4101 19.0278 92.2585 18.8414C88.4778 18.3572 84.6999 17.8523 80.8943 17.5934C78.812 17.2646 76.7077 17.0963 74.6199 16.8193C70.6072 16.6173 66.6497 15.8976 62.6454 15.6076C57.4756 14.906 52.2643 14.5202 47.0862 13.8962C44.4378 13.5493 41.759 13.4768 39.1161 13.0988C38.561 12.9719 38.1164 13.3629 37.6635 13.5907C37.6911 13.7771 37.7187 13.9635 37.7491 14.15C37.6497 14.1448 37.4508 14.1396 37.3514 14.1344C37.8154 16.5138 37.8596 18.9423 38.2352 21.332C38.3539 22.668 38.5942 23.9962 38.5776 25.3425C39.0692 28.5504 39.2017 31.7971 39.7789 34.9971C40.044 36.1881 39.7734 37.4257 40.1075 38.6063C40.5936 40.5352 40.5356 42.5313 40.7317 44.4964C41.1874 46.881 41.1238 49.3225 41.5795 51.7096C41.6844 53.8689 42.2616 56.0152 42.1539 58.1745C42.6897 60.7687 42.8057 63.4174 43.1785 66.0323C43.9103 72.3833 44.4406 78.7498 45.1006 85.1086C45.4099 86.8666 45.4127 88.6504 45.6419 90.4136C45.7303 91.3431 45.6198 92.301 45.9954 93.1891C45.9236 93.2823 45.7855 93.4661 45.7137 93.5593C46.371 94.8746 46.2854 96.3866 46.3157 97.808C46.7825 99.0015 46.6692 100.288 46.8045 101.534C47.564 107.737 48.1605 113.951 48.9752 120.149C49.0774 120.939 48.9117 121.741 49.0857 122.526C49.4253 123.95 49.2735 125.48 50.066 126.793C50.7924 127.07 51.5353 127.445 52.3499 127.305C54.4792 127.121 56.6112 127.352 58.7431 127.225C64.0124 127.347 69.2788 127.01 74.5481 127.137C75.8405 127.134 77.144 126.953 78.4282 127.155C79.5384 127.36 80.6485 126.987 81.7642 127.075C83.0981 127.15 84.4348 127.077 85.7686 127.013C88.1105 127.026 90.4524 127.046 92.7915 126.938C95.5421 127.147 98.2982 126.824 101.052 126.948C102.913 127.072 104.772 126.787 106.63 126.976C109.748 126.847 112.871 127.026 115.992 126.881C116.97 127.028 117.934 126.824 118.906 126.787C120.872 126.935 122.844 126.842 124.813 126.865C127.677 126.707 130.543 126.826 133.407 126.73C133.495 126.808 133.669 126.966 133.758 127.044C133.819 126.976 133.94 126.844 134.001 126.777C136.45 126.777 138.903 126.736 141.352 126.723C143.203 126.834 145.05 126.539 146.903 126.663C154.194 126.536 161.49 126.681 168.781 126.508C172.603 126.565 176.42 126.347 180.245 126.464C181.628 126.355 183.017 126.363 184.404 126.461C185.881 126.433 187.367 126.226 188.836 126.505C189.245 126.068 189.828 125.697 189.988 125.112C189.935 123.88 189.902 122.635 189.529 121.446C189.115 118.427 188.621 115.419 188.234 112.395C188.154 110.683 187.549 109.032 187.591 107.31C187.165 105.314 187.011 103.279 186.652 101.272C186.378 97.386 185.329 93.58 185.089 89.6861C184.807 88.6427 184.462 87.5967 184.459 86.5119C184.445 86.2141 184.591 85.9992 184.895 85.862C184.666 85.7248 184.321 85.7118 184.208 85.4607C184.299 85.2458 184.409 85.0413 184.511 84.8316C183.918 84.161 184.166 83.2419 184.003 82.447C183.81 81.546 183.774 80.6295 183.666 79.7207C183.023 76.5077 182.738 73.2403 182.128 70.0221C182.111 69.6907 182.25 69.3722 182.319 69.0538C181.794 68.3418 181.827 67.4485 181.752 66.6226C181.418 65.5042 181.507 64.3235 181.208 63.1999C180.769 61.7138 181.103 60.15 180.684 58.6612C180.593 57.9311 180.142 57.113 180.499 56.4062C181.697 56.0152 182.863 55.5492 184.011 55.0391C184.119 55.0443 184.335 55.0547 184.442 55.0624C184.561 54.8708 184.685 54.6818 184.812 54.4928C184.934 54.5239 185.171 54.5835 185.29 54.6119C185.525 54.5394 185.762 54.4695 186.005 54.4022C186.547 59.3499 187.522 64.2459 188.101 69.1884C189.364 77.4087 190.504 85.6445 191.705 93.87C191.799 93.7742 191.987 93.5826 192.081 93.4868C192.092 93.5619 192.111 93.7095 192.122 93.7846C191.968 94.1936 191.802 94.6157 191.879 95.061C193.244 104.721 194.801 114.36 196.127 124.027C196.386 125.835 196.773 127.66 196.544 129.49C196.381 130.989 194.984 132.178 193.454 132.463C188.535 132.665 183.597 132.53 178.67 132.618C169.005 133.012 159.322 132.652 149.659 133.043C144.603 133.035 139.543 133.11 134.487 133.097C132.73 133.05 130.98 133.172 129.231 133.278C122.046 133.353 114.86 133.343 107.677 133.387C103.816 133.607 99.9497 133.532 96.0834 133.568C89.0881 133.682 82.0846 133.472 75.0949 133.814C68.2819 133.801 61.4689 133.918 54.6559 133.897C52.5985 133.926 50.4831 134.36 48.4809 133.721C45.1724 132.911 42.4936 130.104 42.2009 126.883C40.5605 111.869 39.0333 96.8448 37.4729 81.8231C37.3569 81.8308 37.125 81.8438 37.009 81.8515L37.0007 81.7324C37.1029 81.6729 37.3017 81.5512 37.4011 81.4891C36.2357 70.4803 35.2001 59.4561 33.9712 48.4499C32.9135 37.9202 31.7204 27.3982 30.7014 16.8659C30.5081 15.2296 30.2927 13.5933 30.127 11.9544C30.1352 10.3388 30.6986 8.64818 32.085 7.60737Z" fill="#172930"/>
<path d="M32.085 7.60737C33.209 6.50961 34.9239 6.39569 36.4428 6.56139C57.8981 8.96405 79.3616 11.3149 100.803 13.8341C114.139 15.3073 127.464 16.8892 140.8 18.3494C145.387 18.9812 150.013 19.3825 154.603 20.0013C154.31 21.4356 153.349 22.6214 152.797 23.9599C152.584 24.413 152.357 24.8946 151.935 25.2079C151.457 25.3321 150.949 25.2234 150.466 25.226C150.347 25.081 150.228 24.936 150.115 24.791C149.806 25.1017 149.35 25.0732 148.941 25.0551C145.801 24.7962 142.703 24.2655 139.566 23.9832C139.499 23.9315 139.372 23.8253 139.306 23.7735C138.152 23.8641 136.981 23.8072 135.851 23.5483C135.583 23.4266 135.346 23.5819 135.125 23.7036C135.036 23.6208 134.951 23.5379 134.865 23.4551C132.722 23.3101 130.623 22.8156 128.475 22.7327C126.431 22.4246 124.357 22.3573 122.316 22.0311C119.077 21.8058 115.901 21.1171 112.648 21.0058C112.697 20.8893 112.8 20.6511 112.849 20.532C111.968 21.2388 110.844 20.6951 109.845 20.5993C107.039 20.4 104.227 20.1436 101.463 19.6517C99.5382 19.7216 97.6603 19.2012 95.7382 19.2478C94.6197 18.8776 93.4101 19.0278 92.2585 18.8414C88.4778 18.3572 84.6999 17.8523 80.8943 17.5934C78.812 17.2646 76.7077 17.0963 74.6199 16.8193C70.6072 16.6173 66.6497 15.8976 62.6454 15.6076C57.4756 14.906 52.2643 14.5202 47.0862 13.8962C44.4378 13.5493 41.759 13.4768 39.1161 13.0988C38.561 12.9719 38.1164 13.3629 37.6635 13.5907C37.6911 13.7771 37.7187 13.9635 37.7491 14.15C37.6497 14.1448 37.4508 14.1396 37.3514 14.1344C37.8154 16.5138 37.8596 18.9423 38.2352 21.332C38.3539 22.668 38.5942 23.9962 38.5776 25.3425C39.0692 28.5504 39.2017 31.7971 39.7789 34.9971C40.044 36.1881 39.7734 37.4257 40.1075 38.6063C40.5936 40.5352 40.5356 42.5313 40.7317 44.4964C41.1874 46.881 41.1238 49.3225 41.5795 51.7096C41.6844 53.8689 42.2616 56.0152 42.1539 58.1745C42.6897 60.7687 42.8057 63.4174 43.1785 66.0323C43.9103 72.3833 44.4406 78.7498 45.1006 85.1086C45.4099 86.8666 45.4127 88.6504 45.6419 90.4136C45.7303 91.3431 45.6198 92.301 45.9954 93.1891C45.9236 93.2823 45.7855 93.4661 45.7137 93.5593C46.371 94.8746 46.2854 96.3866 46.3157 97.808C46.7825 99.0015 46.6692 100.288 46.8045 101.534C47.564 107.737 48.1605 113.951 48.9752 120.149C49.0774 120.939 48.9117 121.741 49.0857 122.526C49.4253 123.95 49.2735 125.48 50.066 126.793C50.7924 127.07 51.5353 127.445 52.3499 127.305C54.4792 127.121 56.6112 127.352 58.7431 127.225C64.0124 127.347 69.2788 127.01 74.5481 127.137C75.8405 127.134 77.144 126.953 78.4282 127.155C79.5384 127.36 80.6485 126.987 81.7642 127.075C83.0981 127.15 84.4348 127.077 85.7686 127.013C88.1105 127.026 90.4524 127.046 92.7915 126.938C95.5421 127.147 98.2982 126.824 101.052 126.948C102.913 127.072 104.772 126.787 106.63 126.976C109.748 126.847 112.871 127.026 115.992 126.881C116.97 127.028 117.934 126.824 118.906 126.787C120.872 126.935 122.844 126.842 124.813 126.865C127.677 126.707 130.543 126.826 133.407 126.73C133.495 126.808 133.669 126.966 133.758 127.044C133.819 126.976 133.94 126.844 134.001 126.777C136.45 126.777 138.903 126.736 141.352 126.723C143.203 126.834 145.05 126.539 146.903 126.663C154.194 126.536 161.49 126.681 168.781 126.508C172.603 126.565 176.42 126.347 180.245 126.464C181.628 126.355 183.017 126.363 184.404 126.461C185.881 126.433 187.367 126.226 188.836 126.505C189.245 126.068 189.828 125.697 189.988 125.112C189.935 123.88 189.902 122.635 189.529 121.446C189.115 118.427 188.621 115.419 188.234 112.395C188.154 110.683 187.549 109.032 187.591 107.31C187.165 105.314 187.011 103.279 186.652 101.272C186.378 97.386 185.329 93.58 185.089 89.6861C184.807 88.6427 184.462 87.5967 184.459 86.5119C184.445 86.2141 184.591 85.9992 184.895 85.862C184.666 85.7248 184.321 85.7118 184.208 85.4607C184.299 85.2458 184.409 85.0413 184.511 84.8316C183.918 84.161 184.166 83.2419 184.003 82.447C183.81 81.546 183.774 80.6295 183.666 79.7207C183.023 76.5077 182.738 73.2403 182.128 70.0221C182.111 69.6907 182.25 69.3722 182.319 69.0538C181.794 68.3418 181.827 67.4485 181.752 66.6226C181.418 65.5042 181.507 64.3235 181.208 63.1999C180.769 61.7138 181.103 60.15 180.684 58.6612C180.593 57.9311 180.142 57.113 180.499 56.4062C181.697 56.0152 182.863 55.5492 184.011 55.0391C184.119 55.0443 184.335 55.0547 184.442 55.0624C184.561 54.8708 184.685 54.6818 184.812 54.4928C184.934 54.5239 185.171 54.5835 185.29 54.6119C185.525 54.5394 185.762 54.4695 186.005 54.4022C186.547 59.3499 187.522 64.2459 188.101 69.1884C189.364 77.4087 190.504 85.6445 191.705 93.87C191.799 93.7742 191.987 93.5826 192.081 93.4868C192.092 93.5619 192.111 93.7095 192.122 93.7846C191.968 94.1936 191.802 94.6157 191.879 95.061C193.244 104.721 194.801 114.36 196.127 124.027C196.386 125.835 196.773 127.66 196.544 129.49C196.381 130.989 194.984 132.178 193.454 132.463C188.535 132.665 183.597 132.53 178.67 132.618C169.005 133.012 159.322 132.652 149.659 133.043C144.603 133.035 139.543 133.11 134.487 133.097C132.73 133.05 130.98 133.172 129.231 133.278C122.046 133.353 114.86 133.343 107.677 133.387C103.816 133.607 99.9497 133.532 96.0834 133.568C89.0881 133.682 82.0846 133.472 75.0949 133.814C68.2819 133.801 61.4689 133.918 54.6559 133.897C52.5985 133.926 50.4831 134.36 48.4809 133.721C45.1724 132.911 42.4936 130.104 42.2009 126.883C40.5605 111.869 39.0333 96.8448 37.4729 81.8231C37.3569 81.8308 37.125 81.8438 37.009 81.8515L37.0007 81.7324C37.1029 81.6729 37.3017 81.5512 37.4011 81.4891C36.2357 70.4803 35.2001 59.4561 33.9712 48.4499C32.9135 37.9202 31.7204 27.3982 30.7014 16.8659C30.5081 15.2296 30.2927 13.5933 30.127 11.9544C30.1352 10.3388 30.6986 8.64818 32.085 7.60737Z" fill="#172930"/>
<path d="M172.323 10.3784C176.303 9.61207 180.464 10.5882 183.966 12.4134C188.86 15.0491 192.709 19.2512 195.038 24.0487C196.581 27.386 197.495 31.1065 196.871 34.7416C196.319 38.5656 194.173 42.2991 190.729 44.492C186.996 46.8791 182.171 47.441 177.846 46.3354C172.583 45.2403 168.07 42.0013 164.913 37.9805C162.069 34.2393 160.023 29.8042 159.962 25.1517C159.918 21.4389 161.481 17.8298 163.856 14.9041C165.955 12.4911 169.064 10.9092 172.323 10.3784ZM164.557 21.3069C164.566 21.905 164.566 22.5056 164.657 23.0985C165.104 26.4359 165.281 29.7939 165.736 33.1286C167.94 33.1467 170.103 33.592 172.295 33.7267C172.141 33.0199 172.041 32.3053 171.994 31.5855C170.619 31.3318 169.2 31.4017 167.841 31.0729C167.501 30.3479 167.67 29.5272 167.565 28.7634C167.195 26.3634 167.128 23.9348 166.75 21.5347C166.01 21.5555 165.27 21.5011 164.557 21.3069ZM172.569 22.2778C173.154 26.1252 173.381 30.0114 173.745 33.882C174.518 33.9675 175.297 34.0218 176.065 34.159C175.739 30.3039 175.234 26.4643 175.016 22.6014C174.204 22.4694 173.392 22.3218 172.569 22.2778ZM176.427 22.7542C177.821 26.6456 179.114 30.5732 180.376 34.506C181.246 34.7105 182.143 34.7571 183.035 34.8477C183.64 31.1143 184.193 27.3731 184.764 23.6371C184.005 23.5542 183.256 23.4222 182.505 23.3134C182.132 25.7653 181.713 28.2094 181.373 30.6664L181.199 30.6483C181.041 29.4702 180.533 28.3751 180.219 27.2333C179.721 25.8041 179.365 24.3258 178.763 22.9328C178.029 22.7076 177.195 22.8759 176.427 22.7542ZM186.082 23.7562C186.598 27.5673 186.813 31.4095 187.236 35.2283C189.241 35.5649 191.279 35.6581 193.298 35.9222C193.262 35.2076 193.347 34.4853 193.212 33.7785C191.856 33.6671 190.517 33.3875 189.152 33.4212C189.155 32.5435 189.161 31.6632 188.956 30.8036C189.97 30.8709 190.967 31.0755 191.983 31.135C191.909 30.3971 191.898 29.6592 191.909 28.9188C190.845 28.7375 189.752 28.8074 188.713 28.4916C188.653 27.7045 188.589 26.9174 188.578 26.1278C189.876 26.2235 191.157 26.4954 192.469 26.485C192.455 25.8093 192.411 25.1336 192.375 24.4578C190.293 24.116 188.183 23.9555 186.082 23.7562Z" fill="#11F4CC"/>
<path d="M140.705 44.3815C146.164 42.753 151.621 41.1141 157.112 39.5762C157.106 40.56 157.103 41.5439 157.211 42.5225C157.504 44.7517 157.308 47.0016 157.531 49.236C157.728 50.8593 157.578 52.4956 157.813 54.1138C158.006 55.3332 157.843 56.576 158.089 57.7929C156.148 56.444 154.286 54.9941 152.386 53.596C147.523 59.9081 142.9 66.3964 138.131 72.7784C134.538 77.7002 130.931 82.6143 127.33 87.5335C127.029 87.8805 126.866 88.3983 126.444 88.6183C123.353 86.3607 120.393 83.9295 117.319 81.6434C115.436 80.1832 113.414 78.8653 111.677 77.2471C108.034 81.5554 104.712 86.094 101.213 90.5058C98.0787 94.4386 94.9801 98.3973 91.9313 102.392C88.6974 100.091 85.5712 97.6516 82.4119 95.2593C79.5038 98.9824 76.3583 102.535 73.3868 106.214C69.7414 110.613 66.1237 115.029 62.4369 119.4C59.9735 119.374 57.5101 119.428 55.0467 119.366C55.0246 118.085 54.8893 116.813 54.707 115.545C54.4723 114.6 55.4085 113.963 55.9249 113.284C64.1546 103.467 72.1551 93.4806 80.371 83.6551C83.4778 86.0111 86.5792 88.375 89.733 90.6715C90.1776 90.3867 90.4096 89.8844 90.7493 89.4986C96.72 81.7262 102.715 73.9694 108.824 66.2954C109.504 66.3057 110.26 66.254 110.768 66.7666C115.129 70.1013 119.592 73.3247 123.884 76.7371C124.541 76.3461 124.908 75.6859 125.355 75.1138C132.105 66.0908 138.656 56.9281 145.805 48.1771C144.162 46.8463 142.304 45.7589 140.705 44.3815Z" fill="#11F4CC"/>
<path d="M152.105 62.5459C154.232 62.6779 156.367 62.6702 158.485 62.9187C160.324 62.9239 162.161 63.0016 163.989 63.2242C165.215 72.796 166.38 82.373 167.571 91.9474C168.772 100.939 169.788 109.954 170.962 118.949C167.013 118.92 163.064 118.998 159.115 118.92C158.438 112.246 156.579 98.9482 156.579 98.9482C156.579 98.9482 155.099 87.3777 154.411 81.5885C153.561 75.2505 152.97 68.8839 152.105 62.5459Z" fill="#11F4CC"/>
<path d="M138.111 79.0039C141.329 79.0039 144.543 79.0039 147.761 79.0039C148.595 84.6015 149.037 90.2456 149.705 95.8613C150.638 103.551 151.395 111.261 152.403 118.94C148.722 118.961 145.04 118.92 141.362 118.958C140.953 118.907 140.459 119.075 140.116 118.829C139.26 110.119 138.28 101.42 137.429 92.7079C136.974 88.9951 136.562 85.2798 136.236 81.5541C136.874 80.7127 137.507 79.8687 138.111 79.0039Z" fill="#11F4CC"/>
<path d="M115.201 86.0078C119.302 88.9205 123.094 92.2061 127.159 95.1654C127.88 94.1013 128.587 93.019 129.44 92.0404C130.399 101.011 131.567 109.962 132.682 118.917C128.209 118.993 123.729 118.941 119.253 118.949C119.015 118.64 119.087 118.221 119.009 117.866C117.714 107.251 116.499 96.623 115.201 86.0078Z" fill="#11F4CC"/>
<path d="M102.216 96.0918C104.674 96.0918 107.135 96.0918 109.593 96.0918C110.255 103.727 111.23 111.339 112.128 118.951C107.615 118.958 103.103 118.935 98.5902 118.948C98.0324 113.656 97.5519 108.356 96.9277 103.069C96.9277 102.743 97.2149 102.508 97.3834 102.249C99.0238 100.216 100.653 98.176 102.216 96.0918Z" fill="#11F4CC"/>
<path d="M77.668 108.002C82.0507 108.002 86.4307 108.002 90.8134 108.002C90.9736 111.658 91.421 115.301 91.7109 118.951C87.3199 118.902 82.9206 119.044 78.5379 118.863C78.3777 115.233 77.9441 111.624 77.668 108.002Z" fill="#11F4CC"/>
<path d="M27.5535 2.16077C29.6883 0.467523 32.577 -0.169388 35.322 0.0377379C51.8008 1.96401 68.2934 3.8126 84.7693 5.74923C107.401 8.41338 130.038 11.0491 152.673 13.6925C156.406 14.055 160.113 14.6505 163.857 14.9042C161.482 17.8298 159.919 21.439 159.963 25.1517C160.024 29.8043 162.071 34.2394 164.915 37.9806C168.072 42.0014 172.584 45.2403 177.848 46.3355C182.173 47.441 186.997 46.8792 190.731 44.4921C191.14 48.676 191.946 52.8185 192.471 56.9921C195.901 80.3015 199.231 103.624 202.719 126.928C203.363 130.006 202.54 133.318 200.601 135.866C199.438 137.385 197.781 138.468 196.058 139.361C193.835 141.09 190.8 141.194 188.052 141.191C182.065 141.331 176.08 141.427 170.093 141.419C161.817 141.766 153.532 141.559 145.255 141.813C139.171 142.015 133.084 141.833 127 142.017C118.906 142.274 110.803 142.069 102.706 142.318C95.1642 142.545 87.6111 142.292 80.0718 142.605C76.1088 142.685 72.1459 142.708 68.1829 142.701C60.9087 142.869 53.6373 143.009 46.3631 142.954C43.897 143.068 41.4198 142.447 39.2519 141.36C36.4847 139.977 34.3665 137.665 32.9001 135.102C31.986 133.333 31.2348 131.443 31.1713 129.46C29.6828 115.578 28.313 101.692 26.7665 87.815C24.4246 65.8053 22.1821 43.793 19.8596 21.7833C19.6828 19.7949 19.3459 17.8221 19.2631 15.8259C18.7383 12.3514 19.7767 8.59462 22.3589 6.00037C23.8032 4.41068 25.7999 3.40612 27.5535 2.16077ZM29.9976 6.17901C28.1307 7.85932 27.3657 10.3655 27.5922 12.7423C29.7794 33.9623 32.0743 55.1823 34.2119 76.405C35.9545 93.3297 37.7412 110.252 39.5032 127.179C39.7987 129.641 41.0138 132.026 42.9801 133.701C44.6316 135.216 46.8492 136.088 49.1027 136.461C56.3851 136.575 63.6676 136.269 70.9501 136.223C75.6449 136.259 80.3341 136.158 85.0262 136.07C92.582 135.881 100.143 136.044 107.699 135.886C117.539 135.635 127.382 135.79 137.221 135.488C142.841 135.389 148.464 135.519 154.084 135.324C160.891 135.099 167.704 135.28 174.512 135.089C180.217 134.926 185.923 134.91 191.629 134.928C193.17 134.939 194.804 134.77 196.105 133.932C197.726 132.984 198.723 131.288 198.952 129.533C199.264 128.391 198.859 127.254 198.781 126.118C195.249 102.309 191.803 78.4892 188.317 54.6749C188.37 53.8982 187.978 53.0205 187.014 53.0593C186.705 53.4684 186.199 53.8542 186.406 54.4186C188.281 67.4442 190.223 80.4594 192.079 93.4876C191.985 93.5834 191.797 93.775 191.703 93.8708C190.502 85.6454 189.361 77.4095 188.099 69.1892C187.519 64.2467 186.544 59.3508 186.003 54.403C185.76 54.4704 185.523 54.5403 185.288 54.6128C185.169 54.5843 184.932 54.5247 184.81 54.4937C184.683 54.6827 184.559 54.8717 184.44 55.0633C184.332 55.0555 184.117 55.0451 184.009 55.04C182.86 55.55 181.695 56.016 180.496 56.407C180.14 57.1138 180.59 57.9319 180.681 58.6621C181.101 60.1508 180.767 61.7146 181.206 63.2007C181.504 64.3244 181.416 65.505 181.75 66.6234C181.825 67.4494 181.792 68.3426 182.316 69.0546C182.247 69.373 182.109 69.6915 182.126 70.0229C182.736 73.2411 183.02 76.5085 183.664 79.7216C183.772 80.6303 183.808 81.5469 184.001 82.4478C184.164 83.2427 183.915 84.1618 184.509 84.8324C184.407 85.0421 184.296 85.2466 184.205 85.4615C184.318 85.7127 184.664 85.7256 184.893 85.8628C184.589 86.0001 184.443 86.2149 184.457 86.5127C184.459 87.5975 184.804 88.6435 185.086 89.6869C185.326 93.5809 186.376 97.3868 186.649 101.273C187.008 103.28 187.163 105.315 187.588 107.311C187.547 109.032 188.152 110.684 188.232 112.396C188.618 115.42 189.113 118.428 189.527 121.447C189.9 122.635 189.933 123.881 189.985 125.113C189.825 125.698 189.242 126.069 188.834 126.506C187.365 126.226 185.879 126.434 184.401 126.462C183.015 126.364 181.626 126.356 180.242 126.465C176.417 126.348 172.601 126.566 168.779 126.509C161.488 126.682 154.192 126.537 146.901 126.664C145.048 126.54 143.2 126.835 141.35 126.724C138.9 126.736 136.448 126.778 133.998 126.778C133.938 126.845 133.816 126.977 133.755 127.045C133.667 126.967 133.493 126.809 133.405 126.731C130.541 126.827 127.674 126.708 124.81 126.866C122.841 126.843 120.87 126.936 118.903 126.788C117.931 126.825 116.967 127.029 115.99 126.881C112.869 127.026 109.746 126.848 106.628 126.977C104.769 126.788 102.911 127.073 101.049 126.949C98.2959 126.825 95.5398 127.148 92.7892 126.938C90.45 127.047 88.1082 127.026 85.7663 127.014C84.4324 127.078 83.0958 127.151 81.7619 127.076C80.6462 126.988 79.536 127.36 78.4258 127.156C77.1417 126.954 75.8382 127.135 74.5457 127.138C69.2765 127.011 64.01 127.348 58.7408 127.226C56.6088 127.353 54.4768 127.122 52.3476 127.306C51.5329 127.446 50.79 127.07 50.0637 126.793C49.2711 125.481 49.423 123.951 49.0833 122.527C48.9093 121.742 49.075 120.94 48.9729 120.15C48.1582 113.952 47.5617 107.738 46.8022 101.534C46.6669 100.289 46.7801 99.0024 46.3134 97.8088C46.283 96.3874 46.3686 94.8754 45.7114 93.5601C45.7832 93.4669 45.9212 93.2831 45.993 93.1899C45.6175 92.3019 45.7279 91.3439 45.6396 90.4144C45.4103 88.6513 45.4076 86.8674 45.0983 85.1094C44.4382 78.7507 43.908 72.3841 43.1762 66.0331C42.8033 63.4182 42.6874 60.7696 42.1516 58.1753C42.2593 56.016 41.6821 53.8697 41.5772 51.7104C41.1215 49.3233 41.185 46.8818 40.7293 44.4973C40.5333 42.5322 40.5913 40.536 40.1052 38.6071C39.7711 37.4265 40.0417 36.1889 39.7766 34.998C39.1994 31.7979 39.0668 28.5512 38.5753 25.3433C38.5918 23.997 38.3516 22.6688 38.2328 21.3328C37.8572 18.9431 37.813 16.5146 37.3491 14.1352C37.4485 14.1404 37.6473 14.1456 37.7468 14.1508C37.7164 13.9643 37.6888 13.7779 37.6612 13.5915C38.1141 13.3637 38.5587 12.9727 39.1138 13.0996C41.7567 13.4776 44.4355 13.5501 47.0839 13.897C52.262 14.521 57.4732 14.9068 62.643 15.6084C66.6474 15.8984 70.6048 16.6181 74.6175 16.8201C76.7053 17.0971 78.8097 17.2654 80.892 17.5942C84.6975 17.8531 88.4755 18.358 92.2562 18.8422C93.4078 19.0286 94.6174 18.8784 95.7358 19.2486C97.658 19.202 99.5359 19.7224 101.461 19.6525C104.225 20.1445 107.037 20.4008 109.842 20.6001C110.842 20.6959 111.966 21.2396 112.847 20.5328C112.797 20.6519 112.695 20.8901 112.645 21.0066C115.899 21.118 119.075 21.8066 122.314 22.0319C124.355 22.3581 126.429 22.4254 128.472 22.7335C130.621 22.8164 132.72 23.3109 134.863 23.4559C134.948 23.5387 135.034 23.6216 135.122 23.7044C135.343 23.5827 135.581 23.4274 135.849 23.5491C136.978 23.808 138.149 23.865 139.304 23.7743C139.37 23.8261 139.497 23.9323 139.563 23.9841C142.7 24.2663 145.799 24.797 148.939 25.0559C149.348 25.0741 149.803 25.1025 150.113 24.7918C150.226 24.9368 150.345 25.0818 150.463 25.2268C150.947 25.2242 151.455 25.333 151.933 25.2087C152.355 24.8954 152.582 24.4138 152.794 23.9607C153.347 22.6222 154.308 21.4364 154.6 20.0021C150.011 19.3833 145.385 18.982 140.798 18.3502C127.462 16.89 114.137 15.3081 100.801 13.8349C79.3593 11.3157 57.8957 8.96485 36.4405 6.5622C34.9216 6.39649 33.2066 6.51041 32.0826 7.60818C30.6963 8.64899 30.1329 10.3396 30.1246 11.9552C30.2903 13.5941 30.5057 15.2304 30.699 16.8667C31.7181 27.399 32.9111 37.921 33.9688 48.4508C35.1978 59.4569 36.2334 70.4812 37.3988 81.4899C37.2994 81.552 37.1005 81.6737 36.9984 81.7333C34.6703 59.1436 32.3257 36.5566 29.923 13.9721C29.7546 12.3539 29.5253 10.5986 30.3621 9.09948C31.2403 7.31303 33.2563 6.05733 35.3552 6.04438C74.2143 10.3396 113.054 14.8032 151.891 19.2486C152.709 19.3496 153.529 19.5283 154.36 19.4402C154.976 19.1503 154.965 18.4227 154.611 17.936C153.7 17.7263 152.767 17.6486 151.839 17.5476C113.551 13.053 75.2472 8.73701 36.9487 4.34595C34.4908 3.81001 31.7568 4.4521 29.9976 6.17901ZM45.2667 22.8319C45.1507 24.3051 45.449 25.755 45.5539 27.2178C48.1858 53.1939 50.9419 79.1546 53.5876 105.128C54.6287 104.126 55.5594 103.028 56.4956 101.944C57.3351 100.815 56.5094 99.4063 56.584 98.1661C56.3575 96.6178 56.3106 95.0592 56.0703 93.5135C55.9598 91.1653 55.3661 88.8454 55.4986 86.4868C56.0206 86.0467 56.7718 86.4764 57.3931 86.4428C61.3561 86.5567 65.297 86.9554 69.2599 87.0564C70.533 85.7153 71.6349 84.2421 72.9467 82.9346C73.1649 82.6938 73.3941 82.4297 73.4355 82.1061C73.5543 80.8633 73.314 79.6309 73.1842 78.3985C73.1649 77.5467 73.1014 76.6975 72.9246 75.8638C73.6482 75.4211 74.4435 75.0768 75.1119 74.5564C77.2135 72.8476 78.2684 70.1886 78.1524 67.6125C78.296 64.3735 77.0036 61.0854 74.601 58.7475C73.6095 57.7196 72.2536 57.1423 71.0357 56.4147C70.7098 53.0049 70.406 49.5874 70.0553 46.175C69.7929 45.3154 68.8236 44.94 67.9481 44.8882C62.2757 44.5102 56.6226 43.8811 50.9502 43.5289C50.4835 39.7489 50.1272 35.9533 49.7019 32.1655C49.5611 29.9907 49.1441 27.834 49.133 25.654C67.081 27.3188 85.0372 29.0302 102.971 30.8399C103.637 37.1495 104.399 43.4513 105.095 49.7608C105.161 50.2579 104.438 50.1544 104.115 50.2165C101.287 50.3253 98.5942 51.4929 96.3572 53.0645C92.4467 56.0782 90.3644 60.8472 90.3037 65.536C90.3506 68.5937 90.9748 71.6566 92.3556 74.4399C93.2835 73.8159 93.9629 72.946 94.7278 72.1641C94.6616 71.0559 94.2031 70.0125 94.0733 68.9122C93.7419 67.382 93.8883 65.8105 93.869 64.2596C94.1037 61.3314 95.4983 58.5093 97.7104 56.4277C99.8258 54.6309 102.549 53.238 105.476 53.2949C105.929 55.8037 106.103 58.3514 106.423 60.8809C107.495 60.8809 108.566 60.8809 109.641 60.8809C109.296 58.4006 108.928 55.9151 108.774 53.4218C113.673 54.2839 117.757 57.2769 121.071 60.622C121.889 60.4252 122.358 59.5423 122.919 58.9753C119.641 55.2833 115.377 52.2205 110.422 50.8327C109.735 50.5842 108.79 50.7421 108.276 50.2139C107.636 43.8526 106.791 37.5119 106.089 31.1558C115.921 31.9713 125.736 33.0846 135.564 33.9571C136.274 34.0918 136.683 33.4238 136.937 32.9189C137.034 32.1655 136.429 31.5364 135.818 31.1299C130.974 30.4645 126.078 30.1227 121.218 29.5635C96.3627 27.0883 71.5079 24.6753 46.6531 22.1976C46.0428 22.0086 45.6119 22.4306 45.2667 22.8319ZM140.707 44.3807C142.306 45.7581 144.164 46.8455 145.807 48.1763C138.657 56.9274 132.107 66.0901 125.357 75.113C124.91 75.6852 124.543 76.3454 123.885 76.7364C119.594 73.324 115.131 70.1006 110.77 66.7659C110.262 66.2532 109.505 66.305 108.826 66.2946C102.717 73.9686 96.7218 81.7255 90.7511 89.4979C90.4114 89.8837 90.1794 90.3859 89.7348 90.6707C86.581 88.3742 83.4796 86.0104 80.3728 83.6544C72.1569 93.4799 64.1564 103.466 55.9267 113.284C55.4103 113.962 54.4741 114.599 54.7088 115.544C54.8911 116.813 55.0264 118.084 55.0485 119.365C57.5119 119.428 59.9753 119.373 62.4387 119.399C66.1255 115.029 69.7432 110.612 73.3886 106.213C76.3601 102.534 79.5056 98.9817 82.4137 95.2586C85.573 97.6509 88.6992 100.09 91.9331 102.391C94.9819 98.3965 98.0805 94.4378 101.215 90.505C104.714 86.0933 108.036 81.5546 111.679 77.2464C113.416 78.8646 115.437 80.1824 117.321 81.6426C120.395 83.9288 123.355 86.3599 126.445 88.6176C126.868 88.3975 127.031 87.8797 127.332 87.5328C130.933 82.6136 134.54 77.6995 138.133 72.7777C142.902 66.3956 147.525 59.9074 152.388 53.5952C154.288 54.9933 156.15 56.4432 158.091 57.7921C157.845 56.5753 158.008 55.3325 157.815 54.1131C157.58 52.4949 157.729 50.8586 157.533 49.2353C157.31 47.0009 157.506 44.751 157.213 42.5218C157.105 41.5431 157.108 40.5593 157.113 39.5754C151.623 41.1133 146.166 42.7522 140.707 44.3807ZM152.104 62.5457C152.968 68.8837 153.559 75.2502 154.41 81.5883C155.097 87.3774 155.962 93.1485 156.578 98.948C157.356 105.612 158.436 112.245 159.113 118.92C163.062 118.998 167.011 118.92 170.96 118.949C169.787 109.954 168.77 100.939 167.569 91.9471C166.379 82.3728 165.213 72.7958 163.987 63.224C162.159 63.0013 160.323 62.9237 158.483 62.9185C156.365 62.6699 154.23 62.6777 152.104 62.5457ZM138.111 79.0044C137.506 79.8691 136.873 80.7132 136.235 81.5546C136.561 85.2803 136.973 88.9956 137.428 92.7083C138.279 101.421 139.259 110.12 140.116 118.829C140.458 119.075 140.952 118.907 141.361 118.959C145.04 118.92 148.721 118.962 152.402 118.941C151.394 111.262 150.637 103.551 149.704 95.8618C149.036 90.2461 148.594 84.602 147.76 79.0044C144.542 79.0044 141.328 79.0044 138.111 79.0044ZM115.203 86.0078C116.501 96.623 117.716 107.251 119.011 117.866C119.088 118.221 119.017 118.64 119.254 118.949C123.731 118.941 128.21 118.993 132.684 118.917C131.568 109.962 130.4 101.011 129.442 92.0404C128.588 93.019 127.881 94.1013 127.161 95.1654C123.095 92.2061 119.304 88.9205 115.203 86.0078ZM102.217 96.0923C100.654 98.1765 99.025 100.217 97.3846 102.249C97.2161 102.508 96.9289 102.744 96.9289 103.07C97.553 108.357 98.0335 113.657 98.5914 118.949C103.104 118.936 107.616 118.959 112.129 118.951C111.231 111.339 110.257 103.727 109.594 96.0923C107.136 96.0923 104.675 96.0923 102.217 96.0923ZM77.6691 108.002C77.9453 111.624 78.3789 115.233 78.5391 118.863C82.9218 119.044 87.3211 118.902 91.7121 118.951C91.4222 115.301 90.9748 111.658 90.8146 108.002C86.4319 108.002 82.0519 108.002 77.6691 108.002Z" fill="#0D2128"/>
</svg>
