<svg width="42" height="42" viewBox="0 0 42 42" fill="none" xmlns="http://www.w3.org/2000/svg">
<g clip-path="url(#clip0_541_279)">
<path d="M8.10663 5.49331L9.11643 14.1143L1.12109 17.5894C1.94502 12.7526 4.49135 8.50279 8.10663 5.49331ZM27.9875 2.0772L21.0035 7.22794L14.0133 2.0772C18.4979 0.420165 23.4927 0.416392 27.9875 2.0772ZM9.28041 27.8049L8.10663 36.5078C4.49135 33.4984 1.94502 29.2486 1.12118 24.4118L9.28041 27.8049ZM21.0035 34.5272L27.9875 39.924C23.5028 41.581 18.5081 41.5848 14.0132 39.924L21.0035 34.5272ZM32.6446 27.7229L40.8797 24.4117C40.0558 29.2485 37.5095 33.4983 33.8942 36.5078L32.6446 27.7229ZM40.8796 17.5894L32.4807 14.2783L33.8941 5.49331C37.5094 8.50279 40.0558 12.7526 40.8796 17.5894Z" fill="#CAECE6" fill-opacity="0.29"/>
<path d="M27.7262 17.1903V24.8115L21.0008 28.6229L14.2754 24.8115V17.1903L21.0008 13.3789L27.7262 17.1903Z" fill="#CAECE6" fill-opacity="0.29"/>
<path d="M21.0005 0.0136719C9.34637 0.0136719 0.0136719 9.46294 0.0136719 21.0005C0.0136719 32.58 9.38213 41.9873 21.0005 41.9873C32.693 41.9873 41.9873 32.4981 41.9873 21.0005C41.9873 9.42914 32.6283 0.0136719 21.0005 0.0136719ZM34.6251 7.27811C37.0341 9.67015 38.8184 12.69 39.7097 16.069L34.3209 13.3099L34.6251 7.27811ZM33.0541 5.87858L32.679 13.3152L27.1664 16.5556L21.8202 13.5261V7.0417L28.0795 2.99444C29.8861 3.70713 31.5598 4.68502 33.0541 5.87858ZM26.3542 17.9797V24.0211L21.0005 27.0549L15.6467 24.0211V17.9797L21.0005 14.9461L26.3542 17.9797ZM26.0839 2.33229L21.0005 5.61928L15.9171 2.33229C19.146 1.45209 22.6701 1.40172 26.0839 2.33229ZM13.9213 2.99436L20.1806 7.0417V13.5261L14.8344 16.5556L9.32184 13.3152L8.94679 5.87858C10.4412 4.68502 12.1148 3.70713 13.9213 2.99436ZM7.37573 7.27811L7.6799 13.3099L2.29102 16.069C3.18246 12.69 4.96672 9.67015 7.37573 7.27811ZM7.37573 34.7228C4.96672 32.3308 3.18246 29.3108 2.29111 25.9319L7.67998 28.6911L7.37573 34.7228ZM1.86676 23.8726C1.72665 22.9353 1.65331 21.9763 1.65331 21.0005C1.65331 20.0246 1.72665 19.0657 1.86676 18.1283L8.49825 14.7329L14.0072 17.9711V24.0298L8.49825 27.2681L1.86676 23.8726ZM8.94687 36.1224L9.32192 28.6857L14.8345 25.4453L20.1807 28.4748V34.9592L13.9214 39.0066C12.1148 38.2938 10.4412 37.3159 8.94687 36.1224ZM21.0005 40.3476C19.2418 40.3476 17.5377 40.1104 15.9171 39.6686L21.0005 36.3817L26.0839 39.6686C24.4632 40.1104 22.7591 40.3476 21.0005 40.3476ZM28.0795 39.0066L21.8202 34.9593V28.4749L27.1664 25.4454L32.679 28.6858L33.0541 36.1224C31.5598 37.3159 29.8861 38.2938 28.0795 39.0066ZM34.6251 34.7228L34.3209 28.6911L39.7098 25.9319C38.8185 29.3109 37.0342 32.3308 34.6251 34.7228ZM33.5028 27.2681L27.9938 24.0298V17.9711L33.5028 14.7329L40.1343 18.1283C40.2744 19.0657 40.3477 20.0246 40.3477 21.0005C40.3477 21.9763 40.2744 22.9353 40.1343 23.8726L33.5028 27.2681Z" fill="#11F4CC"/>
</g>
<defs>
<clipPath id="clip0_541_279">
<rect width="42" height="42" fill="white"/>
</clipPath>
</defs>
</svg>
