<svg width="42" height="42" viewBox="0 0 42 42" fill="none" xmlns="http://www.w3.org/2000/svg">
<path d="M16.0801 37.5619C12.8644 40.7764 3.48516 41.394 2.04536 39.9554C0.608027 38.5156 1.22314 29.1339 4.44008 25.9194C7.65453 22.705 12.1265 23.4441 15.341 26.6598C18.5554 29.8743 19.2958 34.3462 16.0813 37.5607L16.0801 37.5619Z" fill="#11F4CC"/>
<path d="M15.7278 32.7337C13.9433 34.5195 8.73714 34.8606 7.93849 34.0619C7.13984 33.2633 7.48212 28.0559 9.26545 26.2713C11.0513 24.4867 13.5328 24.8985 15.3174 26.683C17.1019 28.4664 17.5124 30.9479 15.7278 32.7337Z" fill="white"/>
<path d="M18.2216 6.51077L22.5423 6.77864L13.0329 20.2293L4.69909 17.5753C2.55488 16.8933 2.36514 14.5556 4.19435 13.365L12.9857 7.64798C14.8162 6.45744 15.977 6.37187 18.2216 6.51077ZM35.4894 23.7785L35.2203 19.4566L21.7709 28.9661L24.4248 37.3011C25.1069 39.4441 27.4446 39.635 28.6339 37.8046L34.351 29.0144C35.5415 27.184 35.6283 26.022 35.4894 23.7785Z" fill="#11F4CC"/>
<path d="M34.5034 23.1433C27.4085 30.2394 18.1533 32.489 13.8314 28.1671C9.51075 23.8465 11.7604 14.5913 18.8552 7.49516C25.9514 0.400286 37.543 0.485856 39.5285 2.47257C41.5127 4.4568 41.5995 16.0484 34.5034 23.1433Z" fill="#07A488"/>
<path d="M19.9151 22.0862C21.0957 23.2668 21.1924 25.2721 19.9151 26.3473L13.9152 31.035C13.2766 31.5348 12.1418 32.2206 10.9612 31.04C9.78058 29.8594 10.4726 28.716 10.9649 28.086L15.6527 22.0862C16.7291 20.8088 18.7344 20.9055 19.9151 22.0862Z" fill="#11F4CC"/>
<path d="M29.4002 12.5999C30.384 13.5836 30.9366 14.9179 30.9366 16.3091C30.9366 17.7004 30.384 19.0346 29.4002 20.0184C28.4165 21.0021 27.0822 21.5548 25.691 21.5548C24.2997 21.5548 22.9655 21.0021 21.9817 20.0184C20.998 19.0346 20.4453 17.7004 20.4453 16.3091C20.4453 14.9179 20.998 13.5836 21.9817 12.5999C22.9655 11.6161 24.2997 11.0635 25.691 11.0635C27.0822 11.0635 28.4165 11.6161 29.4002 12.5999Z" fill="white"/>
<path d="M39.5274 2.47154C38.214 1.15699 32.6942 0.678289 27.0527 2.55835L39.4418 14.9474C41.3218 9.30598 40.8419 3.78609 39.5286 2.47154H39.5274Z" fill="#11F4CC"/>
</svg>
